<svg id="barcode" xmlns="http://www.w3.org/2000/svg" width="64" height="64" viewBox="0 0 64 64"><defs><style>.cls-1{fill:#87cfff;}.cls-2{fill:#5592bc;}</style></defs><title>barcode</title><polygon class="cls-1" points="38 12 35.97 10 33.97 12 31.97 10 30 12 27.97 10 26 12 26 0 38 0 38 12"/><path class="cls-2" d="M64,64H0V0H64ZM2,62H62V2H2Z"/><rect class="cls-2" x="8" y="18" width="2" height="16"/><rect class="cls-2" x="18" y="18" width="2" height="16"/><rect class="cls-2" x="28" y="18" width="2" height="16"/><rect class="cls-2" x="12" y="18" width="4" height="20"/><rect class="cls-2" x="22" y="18" width="4" height="20"/><rect class="cls-2" x="32" y="18" width="4" height="20"/><rect class="cls-2" x="38" y="18" width="2" height="16"/><rect class="cls-2" x="42" y="18" width="4" height="20"/><rect class="cls-2" x="48" y="18" width="2" height="16"/><rect class="cls-2" x="58" y="18" width="2" height="26"/><rect class="cls-2" x="4" y="18" width="2" height="26"/><rect class="cls-2" x="52" y="18" width="4" height="20"/><rect class="cls-2" x="52" y="18" width="4" height="20"/><rect class="cls-2" x="8" y="42" width="24" height="2"/><rect class="cls-2" x="8" y="46" width="16" height="2"/><rect class="cls-2" x="18" y="36" width="2" height="2"/><rect class="cls-2" x="8" y="36" width="2" height="2"/><rect class="cls-2" x="28" y="36" width="2" height="2"/><rect class="cls-2" x="38" y="36" width="2" height="2"/><rect class="cls-2" x="48" y="36" width="2" height="2"/></svg>