<svg id="contribute_settings" data-name="contribute,settings" xmlns="http://www.w3.org/2000/svg" width="64" height="64" viewBox="0 0 64 64"><defs><style>.cls-1{fill:#cde3fa;}.cls-2{fill:#fff;}.cls-3{fill:#5592bc;}.cls-4{fill:#87cfff;}.cls-5{fill:none;stroke:#5592bc;stroke-miterlimit:10;stroke-width:2px;}</style></defs><title>contribute,settings</title><path class="cls-1" d="M37,19a1,1,0,0,1-.46-.11A1,1,0,0,1,36,18V1a1,1,0,0,1,1-1H53a1,1,0,0,1,1,1V13a1,1,0,0,1-1,1H44.32l-6.74,4.81A1,1,0,0,1,37,19ZM38,2V16.06l5.42-3.87A1,1,0,0,1,44,12h8V2Z"/><path class="cls-1" d="M63,27a1,1,0,0,1-.58-.19L55.68,22H45a1,1,0,0,1-1-1V16a1,1,0,0,1,2,0v4H56a1,1,0,0,1,.58.19L62,24.06V10H56a1,1,0,0,1,0-2h7a1,1,0,0,1,1,1V26a1,1,0,0,1-1,1Z"/><rect class="cls-1" x="50" y="16" width="10" height="2"/><rect class="cls-1" x="40" y="4" width="4" height="2"/><rect class="cls-1" x="40" y="8" width="10" height="2"/><path class="cls-1" d="M1,64a1,1,0,0,1-.46-.11A1,1,0,0,1,0,63V46a1,1,0,0,1,1-1H17a1,1,0,0,1,1,1V58a1,1,0,0,1-1,1H8.32L1.58,63.81A1,1,0,0,1,1,64ZM2,47V61.06l5.42-3.87A1,1,0,0,1,8,57h8V47Z"/><rect class="cls-1" x="4" y="49" width="4" height="2"/><rect class="cls-1" x="4" y="53" width="10" height="2"/><rect class="cls-2" x="10" y="25" width="34" height="22"/><path class="cls-3" d="M48,64H44a1,1,0,0,1-1-.84l-.67-4.21-3.45,2.51a1,1,0,0,1-1.3-.1l-2.89-2.89a1,1,0,0,1-.1-1.29l2.51-3.45L32.84,53A1,1,0,0,1,32,52V48a1,1,0,0,1,.84-1l4.21-.67-2.51-3.46a1,1,0,0,1,.1-1.29l2.9-2.89a1,1,0,0,1,1.29-.1l3.45,2.51L43,36.84A1,1,0,0,1,44,36H48a1,1,0,0,1,1,.84l.67,4.21,3.46-2.51a1,1,0,0,1,1.29.1l2.89,2.89a1,1,0,0,1,.1,1.29L54.94,46.3l4.21.67A1,1,0,0,1,60,48V52a1,1,0,0,1-.84,1l-4.87.77,2.43,3.35a1,1,0,0,1-.1,1.29l-2.89,2.9a1,1,0,0,1-1.3.1l-2.79-2L49,63.16A1,1,0,0,1,48,64Zm-3.24-2h2.39l.71-4.5a1,1,0,0,1,1.58-.65l3.42,2.48,1.69-1.69-2.38-3.29a1,1,0,0,1-.07-1.06,7.3,7.3,0,0,0,.36-.73,1,1,0,0,1,.77-.62L58,51.19V48.81l-4.73-.75a1,1,0,0,1-.78-.63,1.57,1.57,0,0,1,0-1.21l2.81-3.87-1.69-1.69-3.87,2.81a1,1,0,0,1-1,.11c-.32-.13-.8-.52-.86-.86L47.19,38H44.81l-.75,4.73a1,1,0,0,1-.62.77,1.54,1.54,0,0,1-1.21,0l-3.87-2.81-1.69,1.69,2.8,3.87a1,1,0,0,1,.11,1c-.13.32-.52.8-.86.86L34,48.81v2.39l4.73.75a1,1,0,0,1,.78.63,1.57,1.57,0,0,1,0,1.21l-2.8,3.87,1.69,1.69,3.87-2.8a1,1,0,0,1,1-.11c.32.13.8.52.86.86ZM46,55a5,5,0,1,1,5-5A5,5,0,0,1,46,55Zm0-8a3,3,0,1,0,3,3A3,3,0,0,0,46,47Z"/><rect class="cls-4" x="10" y="17" width="34" height="6"/><polygon class="cls-4" points="21.83 31.21 20.41 29.8 17 33.21 17 33.21 15.58 34.63 20.41 39.45 21.83 38.04 18.41 34.63 21.83 31.21"/><polygon class="cls-4" points="31.58 31.21 33 29.8 36.41 33.21 36.41 33.21 37.83 34.63 33 39.45 31.58 38.04 35 34.63 31.58 31.21"/><polygon class="cls-4" points="26 40 24 40 28 30 30 30 26 40"/><circle class="cls-3" cx="13" cy="20" r="1"/><circle class="cls-3" cx="17" cy="20" r="1"/><circle class="cls-3" cx="21" cy="20" r="1"/><path class="cls-5" d="M29,48H10.89A1.89,1.89,0,0,1,9,46.11V17.89A1.89,1.89,0,0,1,10.89,16H43.11A1.89,1.89,0,0,1,45,17.89V32"/><rect class="cls-3" x="10" y="23" width="34" height="2"/></svg>