<svg id="copywriting_fax" data-name="copywriting,fax" xmlns="http://www.w3.org/2000/svg" width="64" height="64" viewBox="0 0 64 64"><defs><style>.cls-1{fill:#5592bc;}.cls-2{fill:#87cfff;}.cls-3{fill:#fff;}.cls-4{fill:#cde3fa;}</style></defs><title>copywriting,fax</title><path class="cls-1" d="M26,12H6a2,2,0,0,0-2,2V58a2,2,0,0,0,2,2H26a2,2,0,0,0,2-2V14A2,2,0,0,0,26,12Zm0,46H6V14H26Z"/><path class="cls-1" d="M21.66,42.31A8,8,0,0,0,20,41.08V30.89a8,8,0,1,0-9.66-1.23A8,8,0,0,0,12,30.89V41.08a8,8,0,1,0,9.66,1.23Zm-.13,8a6,6,0,0,1-3.19,3.19,6,6,0,0,1-6.57-1.29,6,6,0,0,1-1.29-1.91,6,6,0,0,1,0-4.67,6,6,0,0,1,1.29-1.91c.07-.07.16-.13.24-.2V48a1,1,0,0,0,2,0V24a1,1,0,0,0-2,0v4.44c-.08-.07-.17-.12-.24-.2a6,6,0,1,1,8.48,0c-.07.07-.16.13-.24.2V24a1,1,0,0,0-2,0V48a1,1,0,0,0,2,0V43.53c.08.07.17.13.24.2a6,6,0,0,1,1.29,1.91,6,6,0,0,1,0,4.67Z"/><path class="cls-1" d="M62,8H2a2,2,0,0,0-2,2V62a2,2,0,0,0,2,2H62a2,2,0,0,0,2-2V10A2,2,0,0,0,62,8Zm0,54H2V10H62Z"/><path class="cls-1" d="M38,38H30V30h8Zm-6-2h4V32H32Z"/><path class="cls-1" d="M48,38H40V30h8Zm-6-2h4V32H42Z"/><path class="cls-1" d="M58,38H50V30h8Zm-6-2h4V32H52Z"/><path class="cls-1" d="M38,48H30V40h8Zm-6-2h4V42H32Z"/><path class="cls-1" d="M48,48H40V40h8Zm-6-2h4V42H42Z"/><path class="cls-1" d="M58,48H50V40h8Zm-6-2h4V42H52Z"/><path class="cls-1" d="M38,58H30V50h8Zm-6-2h4V52H32Z"/><path class="cls-1" d="M48,58H40V50h8Zm-6-2h4V52H42Z"/><path class="cls-1" d="M58,58H50V50h8Zm-6-2h4V52H52Z"/><path class="cls-1" d="M58,24H56V0H32V24H30a1,1,0,0,0,0,2H58a1,1,0,0,0,0-2ZM34,24V2H54V24Z"/><rect class="cls-2" x="34" y="2" width="20" height="22"/><path class="cls-3" d="M52,8H36a1,1,0,0,1,0-2H52a1,1,0,0,1,0,2Z"/><path class="cls-3" d="M52,14H36a1,1,0,0,1,0-2H52a1,1,0,0,1,0,2Z"/><path class="cls-3" d="M52,20H36a1,1,0,0,1,0-2H52a1,1,0,0,1,0,2Z"/><rect class="cls-4" x="32" y="42" width="4" height="4"/><rect class="cls-4" x="42" y="42" width="4" height="4"/><rect class="cls-4" x="42" y="32" width="4" height="4"/><rect class="cls-2" x="32" y="32" width="4" height="4"/><rect class="cls-2" x="32" y="52" width="4" height="4"/><rect class="cls-2" x="52" y="52" width="4" height="4"/><rect class="cls-2" x="52" y="42" width="4" height="4"/><rect class="cls-4" x="52" y="32" width="4" height="4"/><rect class="cls-4" x="42" y="52" width="4" height="4"/></svg>