<svg id="gifts" xmlns="http://www.w3.org/2000/svg" width="64" height="64" viewBox="0 0 64 64"><defs><style>.cls-1{fill:#5592bc;}.cls-2{fill:none;stroke:#5592bc;stroke-linecap:round;stroke-linejoin:round;stroke-width:2px;}.cls-3{fill:#87cfff;}.cls-4{fill:#d0e7fc;}.cls-5{fill:#cde3fa;}</style></defs><title>gifts</title><path class="cls-1" d="M36.35,5a2,2,0,0,0-2-2h-2a2,2,0,0,0-2,2V7a2,2,0,0,0,2,2h2a2,2,0,0,0,2-2Zm-2,2h-2V5h2Z"/><path class="cls-1" d="M23,10a1,1,0,0,1-1-1V6a3.2,3.2,0,0,1,3.17-3c2,0,5.72,3.27,6.78,4.28A1,1,0,0,1,32,8.74a1,1,0,0,1-1.39,0C28.75,7,26,5,25.16,5A1.18,1.18,0,0,0,24,6V9A1,1,0,0,1,23,10Z"/><path class="cls-1" d="M43,10a1,1,0,0,1-1-1V6c0-.53-.29-1-.83-1C40.33,5,37.84,7,35.95,8.77a1,1,0,0,1-1.37,0,1,1,0,0,1,.06-1.41C35.69,6.32,39.12,3,41.16,3A2.9,2.9,0,0,1,44,6V9A1,1,0,0,1,43,10Z"/><path class="cls-2" d="M1,49.92c2-1.46,7.22.4,9,.88C15.47,52.24,32.63,52,32.63,52c12.67.33,12.55-5.32,12.55-5.32,0-3.84-4.57-4.79-7.53-5.28-4.65-.77-9.74,1-14.27-.8A27.78,27.78,0,0,1,17.1,37C8.35,30,1,31.9,1,31.9Z"/><path class="cls-2" d="M44.77,45.26c0-1.38,2.86-3.47,2.86-3.47h0a8.08,8.08,0,0,0,2.3-3,21.29,21.29,0,0,1,2.55-6.61c1.23-1.92,2.93-2.43,5.09-2.57.73,0,1.51-.06,2,.61a5.77,5.77,0,0,1,.31,3.59c-1.08,5.17-4.07,9.55-6.61,14.09C51.5,51,49.29,54.63,45.84,56c-4.61,1.83-9.46,3.16-13.92,5.39a13.84,13.84,0,0,1-5.22,1.54,18.3,18.3,0,0,1-5.76-.71,79.61,79.61,0,0,1-10.53-3.77c-1.54-.64-3.24-1.37-4.77-2S3,54.78,1,54.27V49"/><path class="cls-2" d="M59.89,31.17s4.93-8-.41-8c-4.53,0-7.91,6.65-8.15,11.25"/><rect class="cls-3" x="18" y="13" width="30" height="22"/><path class="cls-4" d="M43,18a1,1,0,0,1-1-1V13a1,1,0,0,1,2,0v4A1,1,0,0,1,43,18Z"/><path class="cls-4" d="M40,17v8h6V17Zm4,6H42V19h2Z"/><rect class="cls-4" x="32" y="13" width="2" height="22"/><rect class="cls-5" x="16" y="9" width="34" height="2"/><path class="cls-1" d="M14,7v6H52V7Zm36,4H16V9H50Z"/><path class="cls-1" d="M16,11V37H50V11ZM48,35H18V13H48Z"/><path class="cls-1" d="M30,11V37h6V11Zm4,24H32V13h2Z"/></svg>