<svg id="home" xmlns="http://www.w3.org/2000/svg" xmlns:xlink="http://www.w3.org/1999/xlink" width="64" height="64" viewBox="0 0 64 64"><defs><style>.cls-1,.cls-11{fill:none;}.cls-2{fill:#d0e7fc;}.cls-3{fill:#fff;}.cls-4{clip-path:url(#clip-path);}.cls-5{fill:#87cfff;}.cls-6{fill:#5592bc;}.cls-7{fill:#e5e6eb;}.cls-8{fill:#cde3fa;}.cls-9{fill:#7bcae7;}.cls-10{fill:#ef9884;}.cls-11{stroke:#5592bc;stroke-miterlimit:10;stroke-width:2px;}</style><clipPath id="clip-path"><polygon class="cls-1" points="42.6 2 8.84 2 2.75 20 48.69 20 42.6 2"/></clipPath></defs><title>home</title><path class="cls-2" d="M61.75,64h-22a1,1,0,0,1,0-2h22a1,1,0,0,1,0,2Z"/><path class="cls-2" d="M62,64H40V38H62ZM42,62H60V40H42Z"/><path class="cls-2" d="M62.75,40h-24a1,1,0,0,1-.95-1.32l2-6a1,1,0,0,1,.95-.68h20a1,1,0,0,1,.95.68l2,6A1,1,0,0,1,62.75,40ZM40.14,38H61.36L60,34H41.47Z"/><path class="cls-2" d="M56,63a1,1,0,0,1-1,1H47a1,1,0,0,1-1-1V51a1,1,0,0,1,1-1h8a1,1,0,0,1,1,1Zm-8-1h6V52H48Z"/><path class="cls-2" d="M60,33a1,1,0,0,1-1,1H43a1,1,0,0,1-1-1V9a1,1,0,0,1,1-1H59a1,1,0,0,1,1,1ZM44,32H58V10H44Z"/><path class="cls-2" d="M61.75,10h-22a1,1,0,0,1,0-2h22a1,1,0,0,1,0,2Z"/><rect class="cls-2" x="52" y="26" width="4" height="4"/><rect class="cls-2" x="52" y="20" width="4" height="4"/><rect class="cls-2" x="46" y="20" width="4" height="4"/><rect class="cls-2" x="46" y="26" width="4" height="4"/><rect class="cls-2" x="46" y="14" width="4" height="4"/><rect class="cls-2" x="52" y="14" width="4" height="4"/><polygon class="cls-3" points="42.6 2 8.84 2 2.75 20 48.69 20 42.6 2"/><g class="cls-4"><rect class="cls-2" x="39.75" y="-10" width="2" height="30" transform="translate(8.4 30.28) rotate(-45)"/><rect class="cls-2" x="37.75" y="-8" width="2" height="30" transform="translate(6.4 29.45) rotate(-45)"/><rect class="cls-2" x="35.75" y="-6" width="2" height="30" transform="translate(4.4 28.62) rotate(-45)"/><rect class="cls-2" x="33.75" y="-4" width="2" height="30" transform="translate(2.4 27.79) rotate(-45)"/><rect class="cls-2" x="31.04" y="-3.72" width="2" height="32.02" transform="translate(0.7 26.25) rotate(-45)"/><rect class="cls-2" x="27.44" y="-5.57" width="2" height="36.52" transform="translate(-0.64 23.83) rotate(-45)"/><rect class="cls-2" x="24.73" y="-5.3" width="2" height="38.55" transform="translate(-2.35 22.29) rotate(-45)"/><rect class="cls-2" x="20.73" y="-5.3" width="2" height="38.55" transform="translate(-3.52 19.46) rotate(-45)"/><rect class="cls-2" x="18.73" y="-3.3" width="2" height="38.55" transform="translate(-5.52 18.62) rotate(-44.98)"/><rect class="cls-2" x="16.73" y="-1.3" width="2" height="38.55" transform="translate(-7.52 17.8) rotate(-45)"/><rect class="cls-2" x="14.73" y="0.7" width="2" height="38.55" transform="translate(-9.52 16.97) rotate(-45)"/><rect class="cls-2" x="12.73" y="2.7" width="2" height="38.55" transform="translate(-11.52 16.14) rotate(-45)"/><rect class="cls-2" x="10.73" y="4.7" width="2" height="38.55" transform="translate(-13.52 15.32) rotate(-45)"/></g><path class="cls-2" d="M14.75,24a6.84,6.84,0,0,1-1,3.58,7,7,0,0,1-6,3.42,6.4,6.4,0,0,1-3.87-1.28C3.05,29.16,2,28.44,2,27.58V23l.09,0a.89.89,0,0,1,.7.92s0,0,0,.06a5,5,0,1,0,10,0,1,1,0,1,1,2,0Z"/><path class="cls-2" d="M26.75,24a6.83,6.83,0,0,1-1,3.58,7,7,0,0,1-12,0,6.83,6.83,0,0,1-1-3.58,1,1,0,0,1,2,0,5,5,0,0,0,10,0,1,1,0,0,1,2,0Z"/><path class="cls-2" d="M38.75,24a6.83,6.83,0,0,1-1,3.58,7,7,0,0,1-12,0,6.83,6.83,0,0,1-1-3.58,1,1,0,0,1,2,0,5,5,0,0,0,10,0,1,1,0,0,1,2,0Z"/><path class="cls-2" d="M50,23a2.45,2.45,0,0,0-.35,0,1,1,0,0,0-.82.92s-.05,0-.05.06a5,5,0,0,1-10,0,1,1,0,0,0-2,0,6.83,6.83,0,0,0,1,3.58,7,7,0,0,0,6,3.42,7.15,7.15,0,0,0,4.13-1.28c.82-.56,1.13-1.28,2.13-2.14Z"/><path class="cls-5" d="M12.75,22a5,5,0,0,1-10,0Z"/><path class="cls-5" d="M24.75,22a5,5,0,0,1-10,0Z"/><path class="cls-5" d="M36.75,22a5,5,0,0,1-10,0Z"/><path class="cls-5" d="M48.75,22a5,5,0,0,1-10,0Z"/><path class="cls-6" d="M45.75,1a1,1,0,0,1-.84,1,.4.4,0,0,1-.16,0h-38a1,1,0,0,1-1-1,1,1,0,0,1,1-1h38A1,1,0,0,1,45.75,1Z"/><rect class="cls-6" x="1.75" y="20" width="48" height="2"/><rect class="cls-5" x="8" y="34" width="16" height="28"/><circle class="cls-7" cx="19.75" cy="48" r="2"/><path class="cls-8" d="M19.75,48a2,2,0,0,1-1.69-1,1.94,1.94,0,0,0-.31,1,2,2,0,0,0,4,0,2,2,0,0,0-.31-1A2,2,0,0,1,19.75,48Z"/><rect class="cls-9" x="30" y="48" width="6" height="6"/><rect class="cls-10" x="38" y="48" width="6" height="6"/><rect class="cls-9" x="38" y="40" width="6" height="6"/><rect class="cls-10" x="30" y="40" width="6" height="6"/><rect class="cls-6" x="27.97" y="46" width="18.03" height="2"/><path class="cls-6" d="M9.05,1.28,8.83,2,2.73,21.94l0,.1a1,1,0,0,1-1,.72,1.38,1.38,0,0,1-.28,0,1,1,0,0,1-.7-.88.75.75,0,0,1,0-.36L1,20.74,6.73,2h0L7.13.72a1,1,0,0,1,1-.72,1.59,1.59,0,0,1,.28,0A1,1,0,0,1,9.05,1.28Z"/><path class="cls-6" d="M50.73,21.84a1,1,0,0,1-.7.88,1.38,1.38,0,0,1-.28,0,1,1,0,0,1-1-.72l0-.1L42.83,2l-.22-.72A1,1,0,0,1,43.29,0a1.41,1.41,0,0,1,.28,0,1,1,0,0,1,1,.72L44.91,2l5.8,19.5A.75.75,0,0,1,50.73,21.84Z"/><rect class="cls-11" x="3" y="21" width="46" height="42"/><path class="cls-6" d="M14.75,22a6.83,6.83,0,0,1-1,3.58A7,7,0,0,1,.75,22a.4.4,0,0,1,0-.16,1,1,0,0,1,1-.84A.78.78,0,0,1,2,21a.94.94,0,0,1,.76.92.08.08,0,0,1,0,.06,5,5,0,0,0,10,0,1,1,0,0,1,2,0Z"/><path class="cls-6" d="M26.75,22a6.83,6.83,0,0,1-1,3.58,7,7,0,0,1-12,0,6.83,6.83,0,0,1-1-3.58,1,1,0,0,1,2,0,5,5,0,0,0,10,0,1,1,0,0,1,2,0Z"/><path class="cls-6" d="M38.75,22a6.83,6.83,0,0,1-1,3.58,7,7,0,0,1-12,0,6.83,6.83,0,0,1-1-3.58,1,1,0,0,1,2,0,5,5,0,0,0,10,0,1,1,0,0,1,2,0Z"/><path class="cls-6" d="M50.75,22a7,7,0,0,1-13,3.58,6.83,6.83,0,0,1-1-3.58,1,1,0,0,1,2,0,5,5,0,0,0,10,0,.08.08,0,0,1,0-.06.94.94,0,0,1,.76-.92.77.77,0,0,1,.22,0,1,1,0,0,1,1,.84A.4.4,0,0,1,50.75,22Z"/><rect class="cls-11" x="7" y="33" width="18" height="30" rx="2" ry="2"/><rect class="cls-11" x="29" y="39" width="16" height="16"/><rect class="cls-6" x="36" y="40" width="2" height="14"/></svg>