<svg id="lamp_control" data-name="lamp,control" xmlns="http://www.w3.org/2000/svg" width="64" height="64" viewBox="0 0 64 64"><defs><style>.cls-1{fill:#cde3fa;}.cls-2{fill:#d0e7fc;}.cls-3{fill:#87cfff;}.cls-4{fill:#fff;}.cls-5{fill:#5592bc;}.cls-6{fill:none;stroke:#5592bc;stroke-miterlimit:10;stroke-width:2px;}</style></defs><title>lamp,control</title><polygon class="cls-1" points="11 13 13.73 13 16.26 13 17.1 12 16.26 11 13.73 11 11 11 11 12.44 11 13"/><path class="cls-1" d="M12,24A12,12,0,1,1,24,12,12,12,0,0,1,12,24ZM12,2A10,10,0,1,0,22,12,10,10,0,0,0,12,2Z"/><path class="cls-1" d="M12,24a1,1,0,0,1-1-1V20a1,1,0,0,1,2,0v3A1,1,0,0,1,12,24Z"/><path class="cls-1" d="M12,5a1,1,0,0,1-1-1V1a1,1,0,0,1,2,0V4A1,1,0,0,1,12,5Z"/><path class="cls-1" d="M4,13H1a1,1,0,0,1,0-2H4a1,1,0,0,1,0,2Z"/><path class="cls-1" d="M22,13H19a1,1,0,0,1,0-2h3a1,1,0,0,1,0,2Z"/><path class="cls-1" d="M12,13a1,1,0,0,1-1-1V7a1,1,0,0,1,2,0v5A1,1,0,0,1,12,13Z"/><path class="cls-2" d="M57.81,50h0a2.44,2.44,0,0,1-2-.84c-1.13-1.38-.34-3.8,1.83-5.63s4.7-2.14,5.8-.79a2.84,2.84,0,0,1,.21,2.92,7.13,7.13,0,0,1-2.05,2.7A6.28,6.28,0,0,1,57.81,50Zm3.7-6.16A4.44,4.44,0,0,0,58.9,45c-1.45,1.22-1.85,2.56-1.58,2.89a.67.67,0,0,0,.49.14h0a4.44,4.44,0,0,0,2.6-1.19,5.26,5.26,0,0,0,1.5-1.94c.2-.49.19-.83.09-.95A.67.67,0,0,0,61.5,43.83Z"/><path class="cls-2" d="M58,61a3,3,0,0,1-3,3H49a3,3,0,0,1-3-3V55a3,3,0,0,1,3-3h6a3,3,0,0,1,3,3Zm-2-6a1,1,0,0,0-1-1H49a1,1,0,0,0-1,1v6a1,1,0,0,0,1,1h6a1,1,0,0,0,1-1Z"/><path class="cls-2" d="M50.48,48.58c-2.22,0-3.23-3.7-3.23-7.14s1-7.15,3.23-7.15,3.23,3.7,3.23,7.15S52.7,48.58,50.48,48.58Zm0-12.3c-.27.16-1.18,1.92-1.18,5.15s.84,4.85,1.23,5.13c.39-.28,1.23-2,1.23-5.12S50.79,36.44,50.43,36.29Z"/><path class="cls-2" d="M53,49.43a2,2,0,0,1-1.15-.35,2,2,0,0,1-.81-1.38c-.26-1.52.65-4,2.36-6.4,1.44-2,3.79-4.38,5.69-4.38a2,2,0,0,1,1.14.35c.61.43,1.21,1.39.62,3.5a14.6,14.6,0,0,1-2.17,4.29C57.27,47.07,54.92,49.43,53,49.43Zm6-10.56c-.56.06-2.27,1.19-4,3.6s-2.16,4.46-2,4.94c.65,0,2.33-1.17,4-3.53C59,41.21,59.25,39.21,59,38.87Z"/><path class="cls-2" d="M46.93,50a6.3,6.3,0,0,1-4.13-2,6.39,6.39,0,0,1-2.09-4.16,2.52,2.52,0,0,1,.68-1.82c1.25-1.28,3.93-.67,5.95,1.34s2.7,4.66,1.41,6A2.47,2.47,0,0,1,46.93,50Zm-3.72-6.72a.4.4,0,0,0-.5.49,4.53,4.53,0,0,0,1.49,2.74,4.47,4.47,0,0,0,2.72,1.46.6.6,0,0,0,.39-.11c.3-.31,0-1.73-1.39-3.12A4.48,4.48,0,0,0,43.21,43.24Z"/><path class="cls-2" d="M58.88,54h-14a3,3,0,0,1,0-6h14a3,3,0,0,1,0,6Zm-14-4a1,1,0,0,0,0,2h14a1,1,0,0,0,0-2Z"/><polygon class="cls-3" points="42.88 33 43.38 39.66 38.88 45 35.88 45 33.44 42.42 31 39.68 31 33 42.88 33"/><path class="cls-4" d="M49.44,15.67C49.44,20.59,48,24.85,42,27v6H30V27a12.61,12.61,0,0,1-6.56-11.3,13,13,0,0,1,26,0Z"/><path class="cls-5" d="M36.88,1.92A13.84,13.84,0,0,0,22.94,15.67,14.43,14.43,0,0,0,30,27.57v12.1a1,1,0,0,0,.2.68l2,2.19,2,2.08a1.06,1.06,0,0,0,.69.38h4a1.09,1.09,0,0,0,.71-.37l4.06-4a1.16,1.16,0,0,0,.36-.75V27.57a14.31,14.31,0,0,0,6.94-11.9A14,14,0,0,0,36.88,1.92ZM42,39.42,38.46,43H35.29L32,39.28V33H42Zm.48-13.34-.48.28V31H32V26.36l-.61-.28a11.7,11.7,0,0,1-6.49-10.41,12,12,0,0,1,24,0A11.65,11.65,0,0,1,42.48,26.09Z"/><path class="cls-5" d="M41.88,39h-6a1,1,0,0,1,0-2h6a1,1,0,0,1,0,2Z"/><path class="cls-3" d="M27.46,17.75a1,1,0,0,1-1-1A11.39,11.39,0,0,1,37.88,5.42a1,1,0,0,1,0,2,9.39,9.39,0,0,0-9.42,9.33A1,1,0,0,1,27.46,17.75Z"/><line class="cls-6" x1="44" y1="32" x2="42" y2="32"/><path class="cls-5" d="M36,43V58.38a1,1,0,0,1-2,0v-9a3,3,0,0,0-6,0v2a1,1,0,0,1-2,0V41.08C26,38.8,24.73,37,22.88,37h-15a1,1,0,0,0,0,2h15c.25,0,1.13.38,1.13,2.08V51.38a3,3,0,0,0,6,0v-2a1,1,0,0,1,2,0v9a3,3,0,0,0,6,0V43Z"/></svg>