<svg id="link_share_connect" data-name="link,share,connect" xmlns="http://www.w3.org/2000/svg" width="64" height="64" viewBox="0 0 64 64"><defs><style>.cls-1,.cls-2{fill:none;stroke-miterlimit:10;stroke-width:2px;}.cls-1{stroke:#87cfff;}.cls-2{stroke:#5592bc;stroke-linecap:round;}.cls-3{fill:#5592bc;}.cls-4{fill:#87cfff;}</style></defs><title>link,share,connect</title><polygon class="cls-1" points="35 28 35 31 21 31 21 35 35 35 35 38 43.38 33 35 28"/><path class="cls-2" d="M40,51H37a4,4,0,0,1-4-4h0a4,4,0,0,1,4-4h3"/><path class="cls-2" d="M46,43h3a4,4,0,0,1,4,4h0a4,4,0,0,1-4,4H46"/><line class="cls-2" x1="40" y1="47" x2="46" y2="47"/><rect class="cls-3" x="12" y="20" width="40" height="2"/><rect class="cls-4" x="12" y="14" width="40" height="6"/><circle class="cls-3" cx="15" cy="17" r="1"/><circle class="cls-3" cx="19" cy="17" r="1"/><circle class="cls-3" cx="23" cy="17" r="1"/><path class="cls-3" d="M30,50H12V14H52V40h2V14a2,2,0,0,0-2-2H12a2,2,0,0,0-2,2V50a2,2,0,0,0,2,2H30Z"/></svg>