<svg id="location" xmlns="http://www.w3.org/2000/svg" width="64" height="64" viewBox="0 0 64 64"><defs><style>.cls-1{fill:#87cfff;}.cls-2{fill:#5592bc;}.cls-3{fill:#fff;}</style></defs><title>location</title><polygon class="cls-1" points="52.34 46 9.57 46 6.09 62.22 55.63 62.23 52.34 46"/><path class="cls-2" d="M56.91,64h-52a1,1,0,0,1-1-1.27l9-32a1,1,0,0,1,1-.73H47.9a1,1,0,0,1,1,.73l8.9,31.74a1,1,0,0,1,.15.53A1,1,0,0,1,56.91,64ZM6.19,62H55.56L47.15,32H14.6Z"/><path class="cls-3" d="M45.88,16c0,8.29-15,33-15,33s-15-24.72-15-33a15,15,0,0,1,30,0Z"/><path class="cls-2" d="M30.88,50a1,1,0,0,1-.86-.48C29.4,48.5,14.88,24.47,14.88,16a16,16,0,0,1,32,0c0,8.47-14.53,32.5-15.14,33.52A1,1,0,0,1,30.88,50Zm0-48a14,14,0,0,0-14,14c0,6.79,10.84,25.68,14,31,3.16-5.37,14-24.25,14-31A14,14,0,0,0,30.88,2Z"/><circle class="cls-1" cx="30.88" cy="15" r="5"/><path class="cls-2" d="M30.88,21a6,6,0,1,1,6-6A6,6,0,0,1,30.88,21Zm0-10a4,4,0,1,0,4,4A4,4,0,0,0,30.88,11Z"/></svg>