<svg id="media" xmlns="http://www.w3.org/2000/svg" xmlns:xlink="http://www.w3.org/1999/xlink" width="64" height="64" viewBox="0 0 64 64"><defs><style>.cls-1,.cls-7{fill:none;}.cls-2{fill:#fff;}.cls-3{fill:#ef9884;}.cls-4{fill:#5592bc;}.cls-5{fill:#87cfff;}.cls-6{fill:#cde3fa;}.cls-7{stroke:#5592bc;stroke-miterlimit:10;stroke-width:2px;}.cls-8{fill:#d0e7fc;}.cls-9{clip-path:url(#clip-path);}.cls-10{fill:#e5e6eb;}</style><clipPath id="clip-path"><rect class="cls-1" x="2" y="46" width="46" height="6"/></clipPath></defs><title>media</title><rect class="cls-2" x="44" y="30" width="14" height="24"/><circle class="cls-3" cx="47" cy="33" r="1"/><circle class="cls-4" cx="51" cy="33" r="1"/><circle class="cls-4" cx="55" cy="33" r="1"/><rect class="cls-5" x="44" y="36" width="14" height="6"/><circle class="cls-4" cx="51" cy="59" r="1"/><rect class="cls-6" x="46" y="44" width="10" height="8"/><rect class="cls-5" x="46" y="48" width="10" height="4"/><rect class="cls-7" x="39" y="23" width="24" height="40" rx="2" ry="2"/><rect class="cls-7" x="43" y="29" width="16" height="26" rx="2" ry="2"/><rect class="cls-4" x="46" y="38" width="10" height="2"/><rect class="cls-2" x="2" y="16" width="46" height="36"/><path class="cls-4" d="M33,52H19L17.09,64H34.92ZM19.43,62l1.27-8H31.29l1.28,8Z"/><polygon class="cls-8" points="19.43 62 20.71 54 31.29 54 32.57 62 19.43 62"/><path class="cls-4" d="M36,64H16a1,1,0,0,1,0-2H36a1,1,0,0,1,0,2Z"/><rect class="cls-8" x="6" y="4" width="38" height="6"/><circle class="cls-3" cx="10" cy="7" r="1"/><circle class="cls-4" cx="14" cy="7" r="1"/><circle class="cls-4" cx="18" cy="7" r="1"/><rect class="cls-6" x="26" y="18" width="16" height="16"/><rect class="cls-5" x="26" y="28" width="16" height="6"/><rect class="cls-6" x="8" y="18" width="16" height="24"/><g class="cls-9"><rect class="cls-8" x="-4" y="48.25" width="14" height="2" transform="translate(-33.95 16.55) rotate(-45)"/><rect class="cls-8" y="48.25" width="14" height="2" transform="translate(-32.77 19.37) rotate(-45)"/><rect class="cls-8" x="4" y="48.25" width="14" height="2" transform="translate(-31.6 22.2) rotate(-45)"/><rect class="cls-8" x="8" y="48.25" width="14" height="2" transform="translate(-30.43 25.03) rotate(-45)"/><rect class="cls-8" x="12" y="48.25" width="14" height="2" transform="translate(-29.26 27.86) rotate(-45)"/><rect class="cls-8" x="16" y="48.25" width="14" height="2" transform="translate(-28.09 30.69) rotate(-45)"/><rect class="cls-8" x="20" y="48.25" width="14" height="2" transform="translate(-26.92 33.51) rotate(-45)"/><rect class="cls-8" x="24" y="48.25" width="14" height="2" transform="translate(-25.74 36.34) rotate(-45)"/><rect class="cls-8" x="28" y="48.25" width="14" height="2" transform="translate(-24.57 39.17) rotate(-45)"/><rect class="cls-8" x="32" y="48.25" width="14" height="2" transform="translate(-23.4 42) rotate(-45)"/><rect class="cls-8" x="36" y="48.25" width="14" height="2" transform="translate(-22.23 44.83) rotate(-45)"/><rect class="cls-8" x="40" y="48.25" width="14" height="2" transform="translate(-21.06 47.66) rotate(-45)"/></g><rect class="cls-7" x="5" y="3" width="40" height="42"/><rect class="cls-5" x="8" y="36" width="16" height="6"/><rect class="cls-6" x="26" y="36" width="16" height="2"/><rect class="cls-6" x="26" y="40" width="16" height="2"/><circle class="cls-4" cx="25" cy="49" r="1"/><rect class="cls-7" x="1" y="15" width="48" height="38" rx="2" ry="2"/><rect class="cls-5" x="6" y="10" width="38" height="6"/><rect class="cls-10" x="20" y="12" width="20" height="2"/><polygon class="cls-4" points="40.75 5.88 46.49 7.56 52.23 9.24 46.76 11.88 44.12 17.35 42.43 11.62 40.75 5.88"/><rect class="cls-4" x="47.97" y="10.92" width="2" height="6" transform="translate(4.5 38.7) rotate(-45)"/><rect class="cls-4" x="20" y="6" width="23" height="2"/><rect class="cls-4" x="8" y="12" width="10" height="2"/></svg>