<svg id="shake-hand_contact" data-name="shake-hand,contact" xmlns="http://www.w3.org/2000/svg" width="64" height="64" viewBox="0 0 64 64"><defs><style>.cls-1{fill:#d0e7fc;}.cls-2,.cls-3{fill:none;stroke:#d0e7fc;stroke-miterlimit:10;stroke-width:2px;}.cls-2{stroke-linecap:round;}.cls-4{fill:#5592bc;}.cls-5{fill:#87cfff;}</style></defs><title>shake-hand,contact</title><path class="cls-1" d="M30.76,47.19h2.46a.6.6,0,0,1,.59.51l.4,2.53,2.07-1.5a.59.59,0,0,1,.78.06l1.73,1.73a.6.6,0,0,1,.06.78l-1.5,2.07,2.53.4a.6.6,0,0,1,.51.59v2.46a.6.6,0,0,1-.51.59l-2.53.4,1.5,2.07a.6.6,0,0,1-.06.78L37.06,62.4a.6.6,0,0,1-.78.06L34.21,61l-.4,2.53a.6.6,0,0,1-.59.5H30.76a.6.6,0,0,1-.59-.5L29.77,61l-2.07,1.5a.6.6,0,0,1-.78-.06l-1.74-1.74a.6.6,0,0,1-.06-.78l1.5-2.07-2.53-.4a.6.6,0,0,1-.51-.59V54.37a.6.6,0,0,1,.51-.59L27,53.31l-1.46-2a.6.6,0,0,1,.06-.78l1.74-1.74a.59.59,0,0,1,.78-.06l1.68,1.21.36-2.24A.6.6,0,0,1,30.76,47.19Zm1.95,1.2H31.28l-.43,2.7a.6.6,0,0,1-.95.39L27.85,50l-1,1,1.43,2a.6.6,0,0,1,0,.64,4.47,4.47,0,0,0-.22.43.59.59,0,0,1-.46.37l-2.84.45v1.44l2.84.45a.6.6,0,0,1,.47.38.94.94,0,0,1,0,.72L26.4,60.18l1,1,2.32-1.68a.58.58,0,0,1,.58-.07c.19.08.48.31.51.52l.45,2.84h1.44L33.16,60a.59.59,0,0,1,.37-.46.92.92,0,0,1,.73,0l2.32,1.68,1-1-1.68-2.32a.6.6,0,0,1-.07-.58c.08-.19.31-.48.52-.51l2.84-.45V54.88l-2.84-.45a.61.61,0,0,1-.47-.37.94.94,0,0,1,0-.72L37.59,51l-1-1-2.32,1.68a.6.6,0,0,1-.58.07c-.19-.08-.48-.31-.51-.52ZM32,52.59a3,3,0,1,1-3,3A3,3,0,0,1,32,52.59Zm0,4.8a1.8,1.8,0,1,0-1.8-1.8A1.8,1.8,0,0,0,32,57.39Z"/><line class="cls-2" x1="33" y1="22" x2="33" y2="46"/><circle class="cls-3" cx="32.99" cy="18.99" r="3"/><line class="cls-2" x1="35.58" y1="21.31" x2="58" y2="48.23"/><line class="cls-2" x1="30" y1="17.31" x2="7.58" y2="44.23"/><path class="cls-1" d="M35.26,47.22c4.69,2.82,6.82-3.74,3.47-6.3Z"/><path class="cls-1" d="M44.75,36.85c3.78,2.81,1.66,10.14-3.53,6.05Z"/><path class="cls-1" d="M51,33.18l-2.66-2-2.88,6.29.6.4C50.8,41.8,54.37,35.8,51,33.18Z"/><path class="cls-1" d="M57,29.21l-.48-.42-.06,0-4.61-3.6-2,5.65L52,34.09a4.83,4.83,0,0,0,3,1.23A3.41,3.41,0,0,0,57,29.21Z"/><path class="cls-1" d="M29.29,15.33C30.72,25.23,21,26.57,21,26.57s-1.11-6.86-.5-9C21,15.92,24.33,12,24.33,12Z"/><path class="cls-4" d="M55.1,36H55a5.58,5.58,0,0,1-3.57-1.41l-8.54-6.7a1,1,0,0,1-.16-1.37,1,1,0,0,1,1.4-.15l8.56,6.79A3.93,3.93,0,0,0,55,34.25a2.17,2.17,0,0,0,2.14-1.55A2.37,2.37,0,0,0,56.38,30l-.4-.33-.13-.09L55,28.86c-1.76-1.37-1.76-1.36-9-7L43.65,20H40.07c-2.84,0-4.87-.69-6.06-2.05a2.86,2.86,0,0,1-1-1.95h-2c-.52,11-9.94,11.79-10,11.8a1.26,1.26,0,0,1-.72-.29,1,1,0,0,1-.3-.72V17.45a1,1,0,0,1,.2-.6l6.38-8.46a1,1,0,0,1,1.6,1.21L22,17.79v7.87c2-.45,7.08-2.37,7.08-10.66a1,1,0,0,1,1-1H34a1,1,0,0,1,1,1.13,2.14,2.14,0,0,0,.57,1.53c.79.87,2.35,1.34,4.52,1.34H44a1,1,0,0,1,.62.21l2.63,2.06c7.2,5.65,7.2,5.65,9,7l.77.6a1,1,0,0,1,.22.15l.31.26a4.25,4.25,0,0,1,1.56,5A4.08,4.08,0,0,1,55.1,36Z"/><path class="cls-1" d="M13,40.7,14.7,39a3,3,0,0,1,4.24,0h0a3,3,0,0,1,0,4.24l-1.66,1.66Z"/><path class="cls-1" d="M23.81,47.15a3,3,0,0,1-.46,1.62,3,3,0,0,1-3.72-.42,2.9,2.9,0,0,1-.88-2.12,3.16,3.16,0,0,1,.46-1.62A3.06,3.06,0,0,1,23,45,3,3,0,0,1,23.81,47.15Z"/><path class="cls-1" d="M9,34.7,8.7,35a3,3,0,0,1,4.24,0h0a3,3,0,0,1,0,4.24l.34-.34Z"/><path class="cls-1" d="M5,28.7,4.7,29a3,3,0,0,1,4.24,0h0a3,3,0,0,1,0,4.24l.34-.34Z"/><path class="cls-4" d="M46,10H20a1,1,0,0,1,0-2H46a1,1,0,0,1,0,2Z"/><path class="cls-4" d="M49.11,40.15a5.75,5.75,0,0,1-3.69-1.51L36.88,32a1,1,0,1,1,1.23-1.58l8.56,6.69A3.29,3.29,0,0,0,50,38a2.5,2.5,0,0,0,1.49-2,2.36,2.36,0,0,0-1-2.18.76.76,0,0,1-.27-1.17,1,1,0,0,1,1.39-.27,4,4,0,0,1,1.82,3.82,4.49,4.49,0,0,1-2.72,3.66A4.32,4.32,0,0,1,49.11,40.15Z"/><path class="cls-4" d="M43.57,44.45a6.23,6.23,0,0,1-3.85-1.55l-3.8-2.85a1,1,0,1,1,1.2-1.6l3.82,2.87c1.3,1,2.51,1.37,3.45,1a2.21,2.21,0,0,0,1.28-1.82,2.82,2.82,0,0,0-1.26-2.63,1,1,0,0,1,1.17-1.62,4.82,4.82,0,0,1,2.08,4.48,4.2,4.2,0,0,1-2.5,3.44A4.11,4.11,0,0,1,43.57,44.45Z"/><path class="cls-4" d="M37.2,48.45a5.91,5.91,0,0,1-3.78-1.56L29,43.34a1,1,0,0,1,1.26-1.55l4.39,3.56c1.2,1,2.37,1.34,3.31,1a2.54,2.54,0,0,0,1.52-2,2.29,2.29,0,0,0-.88-2.2,1,1,0,1,1,1.21-1.59,4.3,4.3,0,0,1,1.65,4.07,4.51,4.51,0,0,1-2.78,3.61A4.22,4.22,0,0,1,37.2,48.45Z"/><polyline class="cls-5" points="6.7 21.45 21.95 6.2 16.51 1.02 1.06 16.47 6.46 21.69"/><path class="cls-4" d="M6.46,22.69a1,1,0,0,1-.7-.28L.36,17.19a1,1,0,0,1,0-1.43L15.8.32a1,1,0,0,1,1.4,0l5.44,5.18a1,1,0,0,1,0,1.43L7.41,22.16l-.13.11-.1.12A1,1,0,0,1,6.46,22.69Zm-4-6.23,4,3.83L20.52,6.22l-4-3.8Z"/><path class="cls-4" d="M9,33a4,4,0,1,1,4-4A4,4,0,0,1,9,33Zm0-6a2,2,0,1,0,2,2A2,2,0,0,0,9,27Z"/><path class="cls-4" d="M21.75,50.24a3.93,3.93,0,0,1-2.83-1.19,3.89,3.89,0,0,1-1.17-2.82,4.15,4.15,0,0,1,.6-2.13l.12-.16a5.36,5.36,0,0,1,.45-.53l8.48-8.48a4.08,4.08,0,0,1,5.66,0,3.89,3.89,0,0,1,1.17,2.82,4,4,0,0,1-1.17,2.83l-8.48,8.48a4.42,4.42,0,0,1-.67.55A4,4,0,0,1,21.75,50.24Zm8.49-14.49a2,2,0,0,0-1.42.59l-8.48,8.48a3.71,3.71,0,0,0-.29.34,2.09,2.09,0,0,0-.3,1.07,1.91,1.91,0,0,0,.58,1.4,2,2,0,0,0,2.49.29,2.26,2.26,0,0,0,.35-.28l8.48-8.48a2,2,0,0,0,.59-1.41,1.91,1.91,0,0,0-.58-1.4A2,2,0,0,0,30.24,35.75Z"/><path class="cls-4" d="M17.16,44.82A4,4,0,0,1,14.34,38L20,32.33a4.1,4.1,0,0,1,5.66,0,4,4,0,0,1,0,5.66L20,43.65A4,4,0,0,1,17.16,44.82Zm5.66-11.66a2,2,0,0,0-1.41.59L15.75,39.4a2,2,0,0,0,0,2.83,2.05,2.05,0,0,0,2.83,0l5.66-5.66a2,2,0,0,0-1.41-3.42Z"/><path class="cls-4" d="M12.58,39.47a3.82,3.82,0,0,1-2.72-1.12l-.22-.23a3.84,3.84,0,0,1,0-5.43l3-3.05a3.94,3.94,0,0,1,5.44,0l.22.22a3.84,3.84,0,0,1,0,5.44l-3,3.05A3.82,3.82,0,0,1,12.58,39.47Zm2.83-9a1.83,1.83,0,0,0-1.3.54l-3,3.05a1.84,1.84,0,0,0,0,2.61l.22.23a1.89,1.89,0,0,0,2.6,0l3-3.05a1.84,1.84,0,0,0,0-2.61l-.22-.22A1.83,1.83,0,0,0,15.41,30.52Z"/><path class="cls-4" d="M47.85,22.39a1,1,0,0,1-.74-1.67l2.14-2.39A1,1,0,0,1,50,18h6a1,1,0,0,1,0,2H50.44l-1.85,2.06A1,1,0,0,1,47.85,22.39Z"/><path class="cls-4" d="M10.69,27a1,1,0,0,1-.95-1.32l1.11-3.32L8.3,19.88a1,1,0,1,1,1.39-1.43l3,2.92a1,1,0,0,1,.25,1l-1.31,3.91A1,1,0,0,1,10.69,27Z"/><polyline class="cls-5" points="63.02 15.59 48.35 1.05 43.24 6.43 58.1 21.29 63.02 15.59"/><path class="cls-4" d="M58.1,22c-.27,0-.52,0-.71-.14L42.54,7.06a1,1,0,0,1,0-1.36L47.62.35a1,1,0,0,1,.71-.3,1.13,1.13,0,0,1,.72.29L63.72,14.87a1,1,0,0,1,.05,1.37l-4.92,5.56c-.18.21-.44.2-.72.2ZM44.64,6.41,58,19.82l3.61-4.18L48.37,2.48Z"/><rect class="cls-1" x="54" y="56" width="2" height="6"/><rect class="cls-1" x="58" y="52" width="2" height="10"/><rect class="cls-1" x="62" y="58" width="2" height="4"/><rect class="cls-1" x="50" y="50" width="2" height="12"/><rect class="cls-1" x="50" y="62" width="14" height="2"/><path class="cls-1" d="M9,46a9,9,0,1,0,9,9A9,9,0,0,0,9,46Zm5.7,5H13.3a6.42,6.42,0,0,0-1.16-2.22A6.5,6.5,0,0,1,14.7,51ZM9,50c.78,0,1.59,0,2.18,2H6.81C7.4,50,8.22,50,9,50ZM5.85,48.78A6.42,6.42,0,0,0,4.69,51H3.29A6.5,6.5,0,0,1,5.85,48.78ZM2.29,57A9.24,9.24,0,0,1,2,55a9.24,9.24,0,0,1,.3-2H4.16A17.43,17.43,0,0,0,4,55a17.16,17.16,0,0,0,.17,2Zm1,2h1.4a6.4,6.4,0,0,0,1.16,2.22A6.5,6.5,0,0,1,3.29,59ZM9,62c-.78,0-1.59-2-2.18-2h4.36C10.58,60,9.77,62,9,62Zm2.8-4H6.19c-.12-2-.2-1.28-.2-2a6.8,6.8,0,0,1,.2-2H11.8a6.8,6.8,0,0,1,.2,2C12,56.72,11.91,56,11.8,58Zm.34,3.22A6.4,6.4,0,0,0,13.3,59h1.4A6.5,6.5,0,0,1,12.14,61.22ZM15.69,57H13.83A17.16,17.16,0,0,0,14,55a17.45,17.45,0,0,0-.17-2h1.87a9.24,9.24,0,0,1,.3,2A9.24,9.24,0,0,1,15.69,57Z"/></svg>