<svg id="social_share" data-name="social,share" xmlns="http://www.w3.org/2000/svg" width="64" height="64" viewBox="0 0 64 64"><defs><style>.cls-1,.cls-13,.cls-2,.cls-3,.cls-6,.cls-8{fill:none;}.cls-1,.cls-3,.cls-6,.cls-7{stroke:#ef9884;}.cls-1,.cls-13,.cls-6,.cls-7,.cls-8,.cls-9{stroke-linecap:round;}.cls-1,.cls-13{stroke-linejoin:round;}.cls-1,.cls-13,.cls-2,.cls-3,.cls-4,.cls-5,.cls-6,.cls-8,.cls-9{stroke-width:2px;}.cls-13,.cls-2,.cls-4,.cls-5,.cls-8,.cls-9{stroke:#5592bc;}.cls-2,.cls-3,.cls-4,.cls-5,.cls-6,.cls-7,.cls-8,.cls-9{stroke-miterlimit:10;}.cls-12,.cls-4{fill:#87cfff;}.cls-5{fill:#cde3fa;}.cls-11,.cls-7{fill:#fff;}.cls-7{stroke-width:3px;}.cls-9{fill:#d0e7fc;}.cls-10{fill:#5592bc;}</style></defs><title>social,share</title><polyline class="cls-1" points="33.17 36.74 45.75 27.37 60.29 36.53"/><line class="cls-2" x1="5.75" y1="15.74" x2="5.75" y2="63.74"/><line class="cls-2" x1="9.75" y1="15.74" x2="9.75" y2="63.74"/><line class="cls-2" x1="13.75" y1="15.74" x2="13.75" y2="63.74"/><line class="cls-2" x1="25.75" y1="15.74" x2="25.75" y2="63.74"/><line class="cls-3" x1="20" y1="16" x2="20" y2="64"/><line class="cls-2" x1="5" y1="57" x2="25" y2="57"/><line class="cls-2" x1="5" y1="37" x2="25" y2="37"/><rect class="cls-4" x="6" y="45" width="8" height="4"/><rect class="cls-4" x="6" y="25" width="8" height="4"/><rect class="cls-5" x="14" y="45" width="12" height="4"/><rect class="cls-5" x="14" y="25" width="12" height="4"/><line class="cls-6" x1="21.75" y1="1.44" x2="46" y2="7.74"/><line class="cls-6" x1="46" y1="8" x2="46" y2="26"/><circle class="cls-7" cx="21.75" cy="4.74" r="3"/><circle class="cls-7" cx="45.75" cy="26.74" r="3"/><line class="cls-8" x1="25.75" y1="62.8" x2="14.38" y2="57.55"/><line class="cls-8" x1="25.75" y1="42.8" x2="14.38" y2="37.55"/><line class="cls-8" x1="25.75" y1="23.74" x2="18.38" y2="16.93"/><line class="cls-8" x1="14.38" y1="54.8" x2="25.75" y2="49.55"/><line class="cls-8" x1="14.38" y1="34.8" x2="25.75" y2="29.55"/><rect class="cls-8" x="4" y="11" width="6" height="6"/><line class="cls-8" x1="3.75" y1="16.43" x2="9.18" y2="11"/><rect class="cls-8" x="10" y="11" width="6" height="6"/><line class="cls-8" x1="15.44" y1="16.74" x2="9.7" y2="11"/><rect class="cls-8" x="28" y="11" width="6" height="6"/><line class="cls-8" x1="27.44" y1="16.74" x2="33.18" y2="11"/><polyline class="cls-8" points="45 17 40 17 40 12"/><rect class="cls-8" x="34" y="11" width="6" height="6"/><line class="cls-8" x1="39.44" y1="16.74" x2="33.7" y2="11"/><line class="cls-8" x1="45.23" y1="16.54" x2="40.45" y2="11"/><rect class="cls-9" x="16" y="7" width="12" height="10"/><rect class="cls-10" x="33" y="38" width="28" height="4"/><circle class="cls-11" cx="44" cy="39" r="1"/><circle class="cls-11" cx="40" cy="39" r="1"/><circle class="cls-12" cx="36" cy="39" r="1"/><path class="cls-12" d="M57,55a2,2,0,1,1-2-2A2,2,0,0,1,57,55Z"/><line class="cls-8" x1="1" y1="17" x2="51" y2="17"/><rect class="cls-13" x="32" y="37" width="30" height="26" rx="1.87" ry="1.87"/><path class="cls-12" d="M36.42,55a2,2,0,1,0,2-2A2,2,0,0,0,36.42,55Z"/><path class="cls-12" d="M36.42,46a2,2,0,1,0,2-2A2,2,0,0,0,36.42,46Z"/><path class="cls-12" d="M52.42,46a2,2,0,1,0,2-2A2,2,0,0,0,52.42,46Z"/><path class="cls-12" d="M35,60h0c0-1.12.67-2,1.5-2h4c.83,0,1.5.91,1.5,2h0"/><path class="cls-12" d="M52,60h0c0-1.12.67-2,1.5-2h4c.83,0,1.5.91,1.5,2h0"/><path class="cls-12" d="M51,51h0c0-1.12.67-2,1.5-2h4c.83,0,1.5.91,1.5,2h0"/><path class="cls-12" d="M44.42,51a2,2,0,1,0,2-2A2,2,0,0,0,44.42,51Z"/><path class="cls-12" d="M43,56h0c0-1.12.67-2,1.5-2h4c.83,0,1.5.91,1.5,2h0"/><path class="cls-12" d="M35,51h0c0-1.12.67-2,1.5-2h4c.83,0,1.5.91,1.5,2h0"/></svg>