<svg id="business_card" data-name="business card" xmlns="http://www.w3.org/2000/svg" width="64" height="64" viewBox="0 0 64 64"><defs><style>.cls-1{fill:#5592bc;}.cls-2{fill:#fff;}.cls-3{fill:#87cfff;}</style></defs><title>business card</title><path class="cls-1" d="M41.5,61.83a8,8,0,0,1-5.88-2.56,7.94,7.94,0,0,1-1.39-8.81L16,30.89V22.08L38.63,46.38a8.19,8.19,0,0,1,8.73,2A8,8,0,0,1,41.5,61.83ZM18,30.11,36.69,50.17l-.38.64a6,6,0,0,0,.78,7.11,6.21,6.21,0,0,0,8.51.32,6,6,0,0,0,.3-8.48,6.13,6.13,0,0,0-7.07-1.28l-.67.33L18,27.16Z"/><path class="cls-1" d="M41.53,57.84h0A4,4,0,0,1,38.8,50.9a4.11,4.11,0,0,1,5.65.21,4,4,0,0,1-2.93,6.72Zm0-6a2,2,0,0,0,0,4h0a2,2,0,0,0,0-4Z"/><path class="cls-1" d="M20,57.6a4,4,0,0,1-2.67-7,4.11,4.11,0,0,1,5.65.32,4,4,0,0,1-3,6.67Zm0-6a2,2,0,0,0-1.49,3.34,2.05,2.05,0,0,0,2.82.16A2,2,0,0,0,20,51.6Z"/><polyline class="cls-2" points="8 36 8 4 56 4 56 36"/><circle class="cls-3" cx="15.96" cy="22.17" r="4"/><rect class="cls-1" x="24" y="22" width="8" height="2"/><rect class="cls-1" x="24" y="26" width="12" height="2"/><rect class="cls-1" x="8" y="14" width="48" height="2"/><rect class="cls-1" x="8" y="8" width="48" height="2"/><path class="cls-1" d="M58,4a2,2,0,0,0-2-2H8A2,2,0,0,0,6,4V36a2,2,0,0,0,2,2H56a2,2,0,0,0,2-2ZM56,36H8V4H56Z"/><path class="cls-3" d="M10,32c0-2,2.69-6,6-6s6,4,6,6Z"/><path class="cls-1" d="M31.4,47.43l-3.89,3.48A8,8,0,0,1,20,61.6h0a8,8,0,0,1-5.34-14,8.12,8.12,0,0,1,8.84-1.2l3.8-3.4,1.36,1.46-4.91,4.4-.63-.39A6.08,6.08,0,0,0,20,47.62a6,6,0,0,0-4.42,10,6.17,6.17,0,0,0,8.47.46,6,6,0,0,0,1.4-7l-.31-.67L30,46ZM34.51,42l11-9.83.27-2.93L33.15,40.5,31.78,39,48.22,24.31,47.4,33.1,35.87,43.42Z"/><path class="cls-2" d="M34.51,42l11-9.83.27-2.93L33.15,40.5"/></svg>