<svg id="card" xmlns="http://www.w3.org/2000/svg" xmlns:xlink="http://www.w3.org/1999/xlink" width="57.08" height="62.05" viewBox="0 0 57.08 62.05"><defs><style>.cls-1,.cls-6,.cls-9{fill:none;}.cls-2{fill:#d0e7fc;}.cls-3{clip-path:url(#clip-path);}.cls-4{fill:#404b5a;}.cls-5{fill:#5592bc;}.cls-6{stroke:#d0e7fc;stroke-linejoin:round;}.cls-6,.cls-9{stroke-linecap:round;stroke-width:2px;}.cls-7{fill:#dddee6;}.cls-8{fill:#cde3fa;}.cls-9{stroke:#5592bc;stroke-miterlimit:10;}.cls-10{fill:#fff;}</style><clipPath id="clip-path" transform="translate(-4.73 -1.9)"><rect class="cls-1" x="4.32" y="1.9" width="30" height="20"/></clipPath></defs><title>card</title><path class="cls-2" d="M34.05,52.75,47.79,30.67,61.52,8.6h0a4.66,4.66,0,0,0-2.12-5.71A4.77,4.77,0,0,0,53,4h0L39.3,25.71,25.56,47.63,22.41,62.08ZM53.67,6.07l5.1,3.17L32.54,51.4l-7,5.55,1.89-8.72Z" transform="translate(-4.73 -1.9)"/><polygon class="cls-2" points="51.46 7.7 50.61 7.17 49.76 6.64 36.72 27.61 23.68 48.57 21.97 53.17 25.38 49.62 38.42 28.66 51.46 7.7"/><g class="cls-3"><path class="cls-2" d="M21.37,29.9H17.28a1,1,0,0,1-1-.84l-.67-4.21-3.45,2.51a1,1,0,0,1-1.29-.1L8,24.35a1,1,0,0,1-.1-1.3l2.51-3.45-4.21-.67a1,1,0,0,1-.84-1V13.85a1,1,0,0,1,.84-1l4.21-.67L7.88,8.74A1,1,0,0,1,8,7.45l2.9-2.89a1,1,0,0,1,1.29-.1L15.62,7l.67-4.21a1,1,0,0,1,1-.84h4.09a1,1,0,0,1,1,.84L23,7l3.46-2.51a1,1,0,0,1,1.29.1l2.89,2.89a1,1,0,0,1,.1,1.29L28.27,12.2l4.21.67a1,1,0,0,1,.84,1v4.09a1,1,0,0,1-.84,1l-4.87.77L30,23.05a1,1,0,0,1-.1,1.29L27,27.25a1,1,0,0,1-1.29.1l-2.79-2-.59,3.74A1,1,0,0,1,21.37,29.9Zm-3.24-2h2.39l.71-4.5a1,1,0,0,1,1.58-.65l3.42,2.48,1.69-1.69-2.38-3.29a1,1,0,0,1-.07-1.06,7.33,7.33,0,0,0,.36-.73,1,1,0,0,1,.77-.62l4.73-.75V14.71L26.6,14a1,1,0,0,1-.78-.63,1.57,1.57,0,0,1,0-1.21l2.81-3.87L27,6.57,23.1,9.38a1,1,0,0,1-1,.11c-.32-.13-.8-.52-.86-.86L20.52,3.9H18.13l-.75,4.73a1,1,0,0,1-.62.77,1.54,1.54,0,0,1-1.21,0L11.69,6.57,10,8.26l2.8,3.87a1,1,0,0,1,.11,1c-.13.32-.52.8-.86.86l-4.73.75v2.39l4.73.75a1,1,0,0,1,.78.63,1.57,1.57,0,0,1,0,1.21L10,23.54l1.69,1.69,3.87-2.8a1,1,0,0,1,1-.11c.32.13.8.52.86.86Zm1.19-7a5,5,0,1,1,5-5A5,5,0,0,1,19.32,20.9Zm0-8a3,3,0,1,0,3,3A3,3,0,0,0,19.32,12.9Z" transform="translate(-4.73 -1.9)"/></g><path class="cls-4" d="M53.72,10.7" transform="translate(-4.73 -1.9)"/><path class="cls-4" d="M53.72,10.7" transform="translate(-4.73 -1.9)"/><path class="cls-5" d="M58,18a2,2,0,0,0-2-2H8a2,2,0,0,0-2,2V50a2,2,0,0,0,2,2H56a2,2,0,0,0,2-2ZM56,50H8V18H56Z" transform="translate(-4.73 -1.9)"/><path class="cls-6" d="M5.73,61.35c2,0,2,1.6,4,1.6s2-1.6,4-1.6,2,1.6,4,1.6,2-1.6,4-1.6,2,1.6,4,1.6" transform="translate(-4.73 -1.9)"/><path class="cls-6" d="M15.73,59.35c2,0,2,1.6,4,1.6s2-1.6,4-1.6,2,1.6,4,1.6,2-1.6,4-1.6,2,1.6,4,1.6" transform="translate(-4.73 -1.9)"/><path class="cls-7" d="M21.69,36c-3.31,0-6,2-6,4h12C27.69,38,25,36,21.69,36Z" transform="translate(-4.73 -1.9)"/><rect class="cls-8" x="5.27" y="18.05" width="44" height="28"/><line class="cls-9" x1="31.27" y1="27.1" x2="45.27" y2="27.1"/><line class="cls-9" x1="31.27" y1="31.1" x2="43.27" y2="31.1"/><line class="cls-9" x1="31.27" y1="35.1" x2="39.27" y2="35.1"/><line class="cls-9" x1="31.27" y1="39.1" x2="35.27" y2="39.1"/><circle class="cls-10" cx="19.23" cy="32.55" r="10"/><circle class="cls-5" cx="19.23" cy="30.55" r="4"/><path class="cls-5" d="M24,36c-3.31,0-6,2-6,4H30C30,38,27.28,36,24,36Z" transform="translate(-4.73 -1.9)"/></svg>