<svg id="chat_labtop" data-name="chat,labtop" xmlns="http://www.w3.org/2000/svg" xmlns:xlink="http://www.w3.org/1999/xlink" width="64" height="64" viewBox="0 0 64 64"><defs><style>.cls-1{fill:none;}.cls-2{fill:#d0e7fc;}.cls-3{fill:#e1f1ff;}.cls-4{fill:#87cfff;}.cls-5{fill:#fff;}.cls-6{fill:#5592bc;}.cls-7{clip-path:url(#clip-path);}.cls-8{fill:#cde3fa;}.cls-9{fill:#7bcae7;}</style><clipPath id="clip-path"><rect class="cls-1" x="14" y="34" width="36" height="28"/></clipPath></defs><title>chat,labtop</title><path class="cls-2" d="M52.72.76,32.65,13.92a1.91,1.91,0,0,0-.69,2.6l7.89,12a1.91,1.91,0,0,0,2.66.41L62.59,15.82a1.91,1.91,0,0,0,.69-2.6l-7.89-12A1.91,1.91,0,0,0,52.72.76Zm8.77,13.38L41.42,27.3,33.74,15.59,53.82,2.43Z"/><rect class="cls-3" x="35.62" y="7.86" width="24" height="14" transform="translate(-0.36 28.54) rotate(-33.24)"/><rect class="cls-4" x="38.36" y="11.64" width="18" height="2" transform="translate(0.82 28.03) rotate(-33.24)"/><rect class="cls-4" x="40.55" y="14.99" width="18" height="2" transform="matrix(0.84, -0.55, 0.55, 0.84, -0.66, 29.78)"/><polygon class="cls-3" points="23.97 59.22 10.94 51.65 6.2 53.97 5.88 48.7 3.22 47.15 11.27 33.32 32.01 45.39 23.97 59.22"/><path class="cls-2" d="M33,43.66,12.27,31.59a2,2,0,0,0-2.73.72l-8,13.83a2,2,0,0,0,.72,2.73l1.73,1,.44,7.2,6.47-3.18,12.1,7a2,2,0,0,0,2.73-.72l8-13.83A2,2,0,0,0,33,43.66ZM24,59.22l-13-7.58L6.2,54,5.88,48.7,3.22,47.15l8-13.83L32,45.39Z"/><rect class="cls-4" x="18.27" y="32.45" width="2" height="18" transform="translate(-26.25 37.27) rotate(-59.82)"/><rect class="cls-4" x="14.53" y="36.9" width="2" height="14" transform="translate(-30.23 35.25) rotate(-59.81)"/><rect class="cls-4" x="9.92" y="41.85" width="2" height="8" transform="translate(-34.2 32.23) rotate(-59.81)"/><rect class="cls-5" x="14" y="4" width="36" height="28"/><path class="cls-6" d="M52,34a2,2,0,0,0-2-2H14a2,2,0,0,0-2,2V62a2,2,0,0,0,2,2H50a2,2,0,0,0,2-2ZM50,62H14V34H50Z"/><path class="cls-6" d="M52,4a2,2,0,0,0-2-2H14a2,2,0,0,0-2,2V32a2,2,0,0,0,2,2H50a2,2,0,0,0,2-2ZM50,32H14V4H50Z"/><rect class="cls-2" x="14" y="34" width="36" height="28"/><g class="cls-7"><polygon class="cls-3" points="5.04 51.14 3.35 49.2 26.96 22.07 28.65 24.01 5.04 51.14"/><polygon class="cls-3" points="7.43 53.88 5.74 51.95 29.35 24.81 31.04 26.75 7.43 53.88"/><polygon class="cls-3" points="9.81 56.62 8.13 54.69 31.74 27.55 33.42 29.49 9.81 56.62"/><polygon class="cls-3" points="12.2 59.37 10.51 57.43 34.12 30.3 35.81 32.23 12.2 59.37"/><polygon class="cls-3" points="14.58 62.1 12.89 60.17 38.37 30.9 40.05 32.84 14.58 62.1"/><polygon class="cls-3" points="16.97 64.85 15.28 62.91 43.28 30.73 44.97 32.67 16.97 64.85"/><polygon class="cls-3" points="19.35 67.59 17.67 65.65 47.56 31.3 49.25 33.24 19.35 67.59"/><polygon class="cls-3" points="21.74 70.33 20.05 68.39 51.04 32.78 52.72 34.72 21.74 70.33"/><polygon class="cls-3" points="24.12 73.07 22.43 71.13 52.21 36.92 53.89 38.86 24.12 73.07"/><polygon class="cls-3" points="26.51 75.81 24.82 73.87 52.82 41.69 54.51 43.63 26.51 75.81"/><polygon class="cls-3" points="28.89 78.55 27.21 76.61 55.21 44.43 56.9 46.37 28.89 78.55"/><polygon class="cls-3" points="31.28 81.29 29.59 79.35 57.6 47.17 59.28 49.11 31.28 81.29"/><rect class="cls-1" x="14" y="34" width="36" height="28"/></g><rect class="cls-5" x="18" y="38" width="28" height="14"/><rect class="cls-8" x="18.62" y="43.87" width="2" height="2"/><rect class="cls-8" x="30.62" y="39.87" width="2" height="2"/><rect class="cls-8" x="26.62" y="39.87" width="2" height="2"/><rect class="cls-8" x="34.62" y="39.87" width="2" height="2"/><rect class="cls-8" x="38.62" y="39.87" width="2" height="2"/><rect class="cls-8" x="42.62" y="39.87" width="2" height="2"/><rect class="cls-8" x="42.62" y="43.87" width="2" height="2"/><rect class="cls-8" x="38.62" y="43.87" width="2" height="2"/><rect class="cls-8" x="34.62" y="43.87" width="2" height="2"/><rect class="cls-8" x="30.62" y="43.87" width="2" height="2"/><rect class="cls-8" x="26.62" y="43.87" width="2" height="2"/><rect class="cls-8" x="22.62" y="43.87" width="2" height="2"/><rect class="cls-8" x="18.62" y="47.87" width="2" height="2"/><rect class="cls-8" x="42.62" y="47.87" width="2" height="2"/><rect class="cls-8" x="38.62" y="47.87" width="2" height="2"/><rect class="cls-8" x="22.62" y="47.87" width="2" height="2"/><rect class="cls-8" x="19.62" y="39.87" width="4" height="2"/><rect class="cls-8" x="27.62" y="47.87" width="8" height="2"/><path class="cls-6" d="M16,6V30H48V6ZM46,28H18V8H46Z"/><rect class="cls-5" x="18" y="8" width="28" height="20"/><polygon class="cls-4" points="13.84 17.49 8.11 19.18 2.37 20.86 7.84 23.5 10.48 28.97 12.16 23.23 13.84 17.49"/><rect class="cls-4" x="2.63" y="24.53" width="6" height="2" transform="translate(-16.41 11.46) rotate(-45)"/><path class="cls-6" d="M46,36H18a2,2,0,0,0-2,2V52a2,2,0,0,0,2,2H46a2,2,0,0,0,2-2V38A2,2,0,0,0,46,36Zm0,16H18V38H46Z"/><rect class="cls-9" x="25" y="52" width="14" height="8"/><rect class="cls-4" x="20" y="14" width="10" height="10" rx="2" ry="2"/><rect class="cls-4" x="32" y="14" width="6" height="2"/><rect class="cls-4" x="32" y="18" width="8" height="2"/><rect class="cls-4" x="32" y="22" width="12" height="2"/><rect class="cls-4" x="20" y="10" width="24" height="2"/></svg>