<svg id="document_business" data-name="document,business" xmlns="http://www.w3.org/2000/svg" xmlns:xlink="http://www.w3.org/1999/xlink" width="64" height="64" viewBox="0 0 64 64"><defs><style>.cls-1{fill:#b6dcfc;}.cls-2{fill:#d0e7fc;}.cls-3,.cls-7{fill:#fff;}.cls-3,.cls-7,.cls-8,.cls-9{stroke:#5592bc;stroke-width:2px;}.cls-3{stroke-miterlimit:10;}.cls-4{fill:#e1f1ff;}.cls-5{clip-path:url(#clip-path);}.cls-6{fill:#5592bc;}.cls-7,.cls-8,.cls-9{stroke-linecap:round;stroke-linejoin:round;}.cls-10,.cls-8{fill:#87cfff;}.cls-9{fill:none;}</style><clipPath id="clip-path"/></defs><title>document,business</title><rect class="cls-1" x="4.72" y="4.61" width="42" height="52" transform="translate(-5.22 5.29) rotate(-10.66)"/><rect class="cls-2" x="4.72" y="11.61" width="52" height="42" transform="translate(-8.2 54.8) rotate(-76.39)"/><path class="cls-2" d="M50.88,36.21h3.28a.8.8,0,0,1,.79.68l.53,3.37,2.76-2a.79.79,0,0,1,1,.08l2.31,2.31a.8.8,0,0,1,.08,1l-2,2.76L63,45a.8.8,0,0,1,.68.79v3.28a.8.8,0,0,1-.68.79l-3.37.53,2,2.76a.8.8,0,0,1-.08,1l-2.32,2.32a.79.79,0,0,1-1,.08l-2.76-2L55,57.94a.8.8,0,0,1-.79.68H50.88a.8.8,0,0,1-.79-.68l-.53-3.37-2.76,2a.8.8,0,0,1-1-.08l-2.31-2.32a.8.8,0,0,1-.08-1l2-2.76L42,49.84a.8.8,0,0,1-.68-.79V45.78A.8.8,0,0,1,42,45l3.89-.62L44,41.69a.8.8,0,0,1,.08-1l2.32-2.32a.79.79,0,0,1,1-.08l2.23,1.62.47-3A.8.8,0,0,1,50.88,36.21Zm2.59,1.6H51.57L51,41.42a.81.81,0,0,1-.49.62.8.8,0,0,1-.78-.09L47,40,45.65,41.3l1.91,2.63a.8.8,0,0,1,.05.85c-.12.22-.21.39-.29.58a.8.8,0,0,1-.62.49l-3.78.6v1.91l3.78.6a.81.81,0,0,1,.63.5,1.27,1.27,0,0,1,0,1l-2.24,3.09,1.35,1.35,3.09-2.24a.79.79,0,0,1,.78-.09c.25.11.64.42.69.69l.6,3.78h1.91l.6-3.78a.79.79,0,0,1,.49-.62,1.22,1.22,0,0,1,1,0l3.09,2.24L60,53.53l-2.24-3.09a.79.79,0,0,1-.09-.78c.11-.25.42-.64.69-.69l3.78-.6V46.46l-3.78-.6a.81.81,0,0,1-.62-.5,1.26,1.26,0,0,1,0-1L60,41.3,58.63,40,55.54,42.2a.79.79,0,0,1-.78.09c-.25-.11-.64-.42-.69-.69Zm-1,5.6a4,4,0,1,1-4,4A4,4,0,0,1,52.52,43.41Zm0,6.4a2.4,2.4,0,1,0-2.4-2.4A2.4,2.4,0,0,0,52.52,49.81Z"/><rect class="cls-3" x="11" y="7" width="40" height="50"/><polyline class="cls-4" points="22 8 50 8 50 56 12 56 12 20"/><g class="cls-5"><path class="cls-6" d="M11.72,20.61h6a4,4,0,0,0,4-4v-8"/></g><line class="cls-7" x1="16" y1="53" x2="46" y2="53"/><rect class="cls-8" x="17" y="27" width="4" height="22"/><rect class="cls-8" x="25" y="35" width="4" height="14"/><rect class="cls-9" x="33" y="37" width="4" height="12"/><rect class="cls-9" x="41" y="43" width="4" height="6"/><rect class="cls-10" x="24" y="13" width="14" height="2"/><rect class="cls-10" x="24" y="17" width="12" height="2"/><rect class="cls-10" x="24" y="21" width="10" height="2"/></svg>