<svg id="Equal_judge_jury_law_legal_trial" data-name="Equal, judge, jury, law, legal, trial" xmlns="http://www.w3.org/2000/svg" width="64" height="64" viewBox="0 0 64 64"><defs><style>.cls-1{fill:#5592bc;}.cls-2{fill:#87cfff;}.cls-3{fill:#fff;}.cls-4,.cls-5,.cls-6{fill:none;stroke:#5592bc;}.cls-4{stroke-linecap:round;stroke-linejoin:round;}.cls-4,.cls-5{stroke-width:2px;}.cls-5,.cls-6{stroke-miterlimit:10;}.cls-6{stroke-width:2.07px;}</style></defs><title>Equal, judge, jury, law, legal, trial</title><path class="cls-1" d="M17.5,34H1.5a1,1,0,0,0-1,1,9.22,9.22,0,0,0,9,9,9.22,9.22,0,0,0,9-9A1,1,0,0,0,17.5,34Zm-8,8a7.33,7.33,0,0,1-6.92-6H16.42A7.33,7.33,0,0,1,9.5,42Z"/><path class="cls-2" d="M16.42,36A7.33,7.33,0,0,1,9.5,42a7.33,7.33,0,0,1-6.92-6Z"/><path class="cls-1" d="M17.5,36a1,1,0,0,1-.92-.61L9.5,18.56,2.42,35.37a1,1,0,0,1-1.84-.78l8-19a1,1,0,0,1,1.84,0l8,19A1,1,0,0,1,17.5,36Z"/><path class="cls-1" d="M61.5,34h-16a1,1,0,0,0-1,1,9,9,0,0,0,18,0A1,1,0,0,0,61.5,34Zm-8,8a7.33,7.33,0,0,1-6.92-6H60.42A7.33,7.33,0,0,1,53.5,42Z"/><path class="cls-2" d="M60.42,36a7.33,7.33,0,0,1-6.92,6,7.33,7.33,0,0,1-6.92-6Z"/><path class="cls-1" d="M61.5,36a1,1,0,0,1-.92-.61L53.5,18.56,46.42,35.37a1,1,0,0,1-1.84-.78l8-19a1,1,0,0,1,1.84,0l8,19a1,1,0,0,1-.53,1.31A1,1,0,0,1,61.5,36Z"/><circle class="cls-3" cx="9.5" cy="15.98" r="2"/><path class="cls-1" d="M9.5,19a3,3,0,1,1,3-3A3,3,0,0,1,9.5,19Zm0-4a1,1,0,1,0,1,1A1,1,0,0,0,9.5,15Z"/><circle class="cls-3" cx="53.5" cy="15.98" r="2"/><path class="cls-1" d="M53.5,19a3,3,0,1,1,3-3A3,3,0,0,1,53.5,19Zm0-4a1,1,0,1,0,1,1A1,1,0,0,0,53.5,15Z"/><circle class="cls-3" cx="32.5" cy="10.98" r="3"/><path class="cls-1" d="M32.5,15a4,4,0,1,1,4-4A4,4,0,0,1,32.5,15Zm0-6a2,2,0,1,0,2,2A2,2,0,0,0,32.5,9Z"/><polyline class="cls-4" points="33.09 51.55 39.75 46.27 32.55 27.66 26.75 46.38 33.09 51.55"/><path class="cls-1" d="M38,15a1,1,0,0,0-1-1H29a1,1,0,0,0-1,1v6a1,1,0,0,0,1,1h8a1,1,0,0,0,1-1Zm-2,5H30V16h6Z"/><rect class="cls-2" x="30" y="16" width="6" height="4"/><path class="cls-1" d="M35.42,11.31a1,1,0,0,1-1-.7l-2-6.23-1.86,5.87a1,1,0,1,1-1.91-.6L31.55.76a1,1,0,0,1,1-.7h0a1,1,0,0,1,1,.7L36.38,10a1,1,0,0,1-.65,1.25A1,1,0,0,1,35.42,11.31Z"/><path class="cls-1" d="M9.5,15A1,1,0,0,1,9,13.11L32,.19a1,1,0,1,1,1,1.74L10,14.85A1,1,0,0,1,9.5,15Z"/><path class="cls-1" d="M54,15a1,1,0,0,1-.52-.15L32.21,1.92a1,1,0,1,1,1-1.71L54.52,13.13A1,1,0,0,1,54,15Z"/><line class="cls-5" x1="26" y1="63" x2="41" y2="63"/><path class="cls-6" d="M25.75,64a7.26,7.26,0,0,1,7.5-7,7.26,7.26,0,0,1,7.5,7"/><path class="cls-4" d="M40,60V54s-6.63.25-6.63-2.73"/><path class="cls-4" d="M27,60V54s6.37.25,6.37-2.73"/><path class="cls-4" d="M37,20v6.27s-2.72-.4-4.55,3.07"/><path class="cls-4" d="M29,20v6.27s2.28-.22,3.58,3.21"/></svg>