<svg id="world" xmlns="http://www.w3.org/2000/svg" width="64" height="64" viewBox="0 0 64 64"><defs><style>.cls-1{fill:#87cfff;}.cls-2{fill:#5592bc;}.cls-3{fill:#cde3fa;}.cls-4{fill:#ef9884;}.cls-5,.cls-6{fill:#fff;stroke:#5592bc;stroke-linecap:round;stroke-width:2px;}.cls-5{stroke-linejoin:round;}.cls-6{stroke-miterlimit:10;}</style></defs><title>world</title><path class="cls-1" d="M27.5,38.56c-8,0-14.5-8.29-14.5-18.48S19.51,1.6,27.5,1.6,42,9.89,42,20.08,35.49,38.56,27.5,38.56Z"/><path class="cls-2" d="M32,0A20,20,0,1,0,52,20,20,20,0,0,0,32,0Zm0,38A18,18,0,1,1,50,20,18,18,0,0,1,32,38Z"/><path class="cls-3" d="M33,39c-7.72,0-14-8.3-14-18.5S25.28,2,33,2s14,8.3,14,18.5S40.72,39,33,39Z"/><path class="cls-2" d="M31,0c-3.32,0-6,9-6,20s2.69,20,6,20,6-9,6-20S34.31,0,31,0Zm0,38c-1.51,0-4.29-6.83-4.29-18S29.49,2,31,2s4.28,6.83,4.28,18S32.51,38,31,38Z"/><path class="cls-2" d="M32,0C24.27,0,18,9,18,20s6.27,20,14,20,14-9,14-20S39.73,0,32,0Zm0,37.87c-6.61,0-12-8-12-17.87S25.39,2.13,32,2.13s12,8,12,17.87S38.61,37.87,32,37.87Z"/><path class="cls-2" d="M50,16H14a1,1,0,0,1,0-2H50a1,1,0,0,1,0,2Z"/><path class="cls-2" d="M50,28H14a1,1,0,0,1,0-2H50a1,1,0,0,1,0,2Z"/><path class="cls-4" d="M55.5,4.51a1,1,0,0,1-.7-.3,1.06,1.06,0,0,1-.3-.7,1,1,0,0,1,.3-.7,1,1,0,0,1,1.7.7,1,1,0,0,1-.28.7A1,1,0,0,1,55.5,4.51Z"/><path class="cls-4" d="M32.34,20.35A1,1,0,0,1,31.82,19h0a1,1,0,0,1,1.32-.52h0a1,1,0,0,1,.52,1.32h0a1,1,0,0,1-.92.6h0A1.59,1.59,0,0,1,32.34,20.35Zm1.58-3.44a1,1,0,0,1-.38-1.36h0a1,1,0,0,1,1.36-.4h0a1,1,0,0,1,.38,1.36h0a1,1,0,0,1-.88.52h0A1.07,1.07,0,0,1,33.92,16.91Zm1.92-3.26a1,1,0,0,1-.24-1.4h0A1,1,0,0,1,37,12h0a1,1,0,0,1,.24,1.4h0a1,1,0,0,1-.82.42h0A1,1,0,0,1,35.84,13.65Zm2.28-3A1,1,0,0,1,38,9.19h0a1,1,0,0,1,1.42-.06h0a1,1,0,0,1,.06,1.42h0a1,1,0,0,1-.74.32h0A.92.92,0,0,1,38.12,10.61Zm2.62-2.72a1,1,0,0,1,.12-1.4h0a1,1,0,0,1,1.42.12h0A1,1,0,0,1,42.14,8h0a1,1,0,0,1-.64.22h0A1,1,0,0,1,40.74,7.89Zm3-2.3a1,1,0,0,1,.36-1.36h0a1,1,0,0,1,1.38.36h0a1,1,0,0,1-.38,1.36h0a.88.88,0,0,1-.48.14h0A1,1,0,0,1,43.74,5.59ZM47.1,3.87a1,1,0,0,1,.66-1.26h0A1,1,0,0,1,49,3.27h0a1,1,0,0,1-.66,1.26h0a1.49,1.49,0,0,1-.3,0h0A1,1,0,0,1,47.1,3.87ZM50.78,3a1,1,0,0,1,1-1h0a1,1,0,0,1,1,1h0a1,1,0,0,1-1,1h0V4h0A1,1,0,0,1,50.78,3Z"/><path class="cls-4" d="M31.4,24a1,1,0,0,1-.7-.28,1.11,1.11,0,0,1-.3-.72,1,1,0,0,1,2,0,1.11,1.11,0,0,1-.3.72A1.05,1.05,0,0,1,31.4,24Z"/><path class="cls-5" d="M48.58,43.72c.89-1.39,2.09-2.61,3.11-3.91,1.69-2.15,3.33-4.33,5.12-6.39s4.8-7.51,1-9.06a5.42,5.42,0,0,0-1.92-.26c-.69,0-.92-.06-1.19.07-4,1.94-13,12.08-13,12.08C32.42,35.85,33,47.67,33,47.67V63H47V55.5l16-13V26.25s-.22-4.38-1.22-5.83c-2-2.92-3.37-6.24-5.09-9.35-.46-.84-1.09-2.19-2.07-2.56a.73.73,0,0,0-.33-.05c-.4,0-.5.57-.62,1a25.86,25.86,0,0,0-.79,5.34c-.13,3.12.33,7.25,3,9.28"/><path class="cls-6" d="M56.62,33.21S51,34.63,50.77,27.69"/><path class="cls-5" d="M15.41,43.72c-.89-1.39-2.09-2.61-3.11-3.91C10.61,37.66,9,35.48,7.18,33.42s-4.8-7.51-1-9.06a5.42,5.42,0,0,1,1.92-.26c.69,0,.92-.06,1.19.07,4,1.94,13,12.08,13,12.08,9.2-.4,8.63,11.42,8.63,11.42V63H17V55.5L1,42.5V26.25s.21-4.38,1.21-5.83c2-2.92,3.37-6.24,5.08-9.35.46-.84,1.09-2.19,2.07-2.56a.72.72,0,0,1,.33-.05c.4,0,.5.57.62,1a25.86,25.86,0,0,1,.79,5.34c.13,3.12-.33,7.25-3,9.28"/><path class="cls-6" d="M7.38,33.21s5.66,1.42,5.85-5.52"/><polygon class="cls-4" points="30.22 31.14 29.1 27.35 27.98 23.57 31.4 25.66 35.38 25.16 32.8 28.15 30.22 31.14"/></svg>