<svg xmlns="http://www.w3.org/2000/svg" xmlns:xlink="http://www.w3.org/1999/xlink" width="932.375" height="646.22" viewBox="0 0 932.375 646.22">
  <defs>
    <linearGradient id="linear-gradient" x1="0.5" y1="1" x2="0.5" gradientUnits="objectBoundingBox">
      <stop offset="0" stop-color="gray" stop-opacity="0.251"/>
      <stop offset="0.535" stop-color="gray" stop-opacity="0.122"/>
      <stop offset="1" stop-color="gray" stop-opacity="0.102"/>
    </linearGradient>
  </defs>
  <g id="Group_77" data-name="Group 77" transform="translate(0 0)">
    <rect id="Rectangle_176" data-name="Rectangle 176" width="11" height="147" transform="translate(172.188 163.11)" fill="#6c63ff" stroke="#6c63ff" stroke-miterlimit="10" stroke-width="1"/>
    <rect id="Rectangle_177" data-name="Rectangle 177" width="109.268" height="66.199" transform="translate(407.42 265.808)" fill="#f55f44"/>
    <rect id="Rectangle_178" data-name="Rectangle 178" width="109.268" height="66.199" transform="translate(516.688 265.808)" fill="#4d8af0"/>
    <rect id="Rectangle_179" data-name="Rectangle 179" width="109.268" height="66.199" transform="translate(625.956 265.808)" fill="#3ad29f"/>
    <rect id="Rectangle_180" data-name="Rectangle 180" width="109.268" height="66.199" transform="translate(406.623 332.007)" fill="#4d8af0"/>
    <rect id="Rectangle_181" data-name="Rectangle 181" width="109.268" height="66.199" transform="translate(298.152 332.007)" fill="#f55f44"/>
    <rect id="Rectangle_182" data-name="Rectangle 182" width="109.268" height="66.199" transform="translate(516.688 332.007)" fill="#3ad29f"/>
    <rect id="Rectangle_183" data-name="Rectangle 183" width="109.268" height="66.199" transform="translate(625.956 332.007)" fill="#fdd835"/>
    <g id="Group_66" data-name="Group 66" opacity="0.1">
      <rect id="Rectangle_184" data-name="Rectangle 184" width="14.356" height="66.199" transform="translate(426.961 265.409)"/>
      <rect id="Rectangle_185" data-name="Rectangle 185" width="14.356" height="66.199" transform="translate(454.876 265.409)"/>
      <rect id="Rectangle_186" data-name="Rectangle 186" width="14.356" height="66.199" transform="translate(482.791 265.409)"/>
    </g>
    <g id="Group_67" data-name="Group 67" opacity="0.1">
      <rect id="Rectangle_187" data-name="Rectangle 187" width="14.356" height="66.199" transform="translate(536.229 265.409)"/>
      <rect id="Rectangle_188" data-name="Rectangle 188" width="14.356" height="66.199" transform="translate(564.144 265.409)"/>
      <rect id="Rectangle_189" data-name="Rectangle 189" width="14.356" height="66.199" transform="translate(592.059 265.409)"/>
    </g>
    <g id="Group_68" data-name="Group 68" opacity="0.1">
      <rect id="Rectangle_190" data-name="Rectangle 190" width="14.356" height="66.199" transform="translate(645.496 265.409)"/>
      <rect id="Rectangle_191" data-name="Rectangle 191" width="14.356" height="66.199" transform="translate(673.411 265.409)"/>
      <rect id="Rectangle_192" data-name="Rectangle 192" width="14.356" height="66.199" transform="translate(701.327 265.409)"/>
    </g>
    <g id="Group_69" data-name="Group 69" opacity="0.1">
      <rect id="Rectangle_193" data-name="Rectangle 193" width="14.356" height="66.199" transform="translate(426.961 331.608)"/>
      <rect id="Rectangle_194" data-name="Rectangle 194" width="14.356" height="66.199" transform="translate(454.876 331.608)"/>
      <rect id="Rectangle_195" data-name="Rectangle 195" width="14.356" height="66.199" transform="translate(482.791 331.608)"/>
    </g>
    <g id="Group_70" data-name="Group 70" opacity="0.1">
      <rect id="Rectangle_196" data-name="Rectangle 196" width="14.356" height="66.199" transform="translate(317.693 331.608)"/>
      <rect id="Rectangle_197" data-name="Rectangle 197" width="14.356" height="66.199" transform="translate(345.608 331.608)"/>
      <rect id="Rectangle_198" data-name="Rectangle 198" width="14.356" height="66.199" transform="translate(373.523 331.608)"/>
    </g>
    <g id="Group_71" data-name="Group 71" opacity="0.1">
      <rect id="Rectangle_199" data-name="Rectangle 199" width="14.356" height="66.199" transform="translate(536.229 331.608)"/>
      <rect id="Rectangle_200" data-name="Rectangle 200" width="14.356" height="66.199" transform="translate(564.144 331.608)"/>
      <rect id="Rectangle_201" data-name="Rectangle 201" width="14.356" height="66.199" transform="translate(592.059 331.608)"/>
    </g>
    <g id="Group_72" data-name="Group 72" opacity="0.1">
      <rect id="Rectangle_202" data-name="Rectangle 202" width="14.356" height="66.199" transform="translate(645.496 331.608)"/>
      <rect id="Rectangle_203" data-name="Rectangle 203" width="14.356" height="66.199" transform="translate(673.411 331.608)"/>
      <rect id="Rectangle_204" data-name="Rectangle 204" width="14.356" height="66.199" transform="translate(701.327 331.608)"/>
    </g>
    <rect id="Rectangle_205" data-name="Rectangle 205" width="846" height="26" transform="translate(21.688 475.61)" fill="#6c63ff" stroke="#6c63ff" stroke-miterlimit="10" stroke-width="1"/>
    <path id="Path_259" data-name="Path 259" d="M927.5,497.5h-498a12.035,12.035,0,0,1-12-12V412.176L223.5,390.5v223h716v-128A12.035,12.035,0,0,1,927.5,497.5Z" transform="translate(-136.812 -124.89)" fill="#6c63ff" stroke="#6c63ff" stroke-miterlimit="10" stroke-width="1"/>
    <rect id="Rectangle_206" data-name="Rectangle 206" width="73" height="42" transform="translate(86.688 289.61)" fill="#fff"/>
    <circle id="Ellipse_20" data-name="Ellipse 20" cx="21" cy="21" r="21" transform="translate(156.688 141.61)" fill="#6c63ff" stroke="#6c63ff" stroke-miterlimit="10" stroke-width="1"/>
    <path id="Path_260" data-name="Path 260" d="M232.429,621.629c7.436-20.076,30.819-30.532,52.212-29.695s41.318,10.5,60.494,20.022,39.032,19.278,60.415,20.327c47.519,2.33,87.509-38.126,134.863-42.717,56.293-5.458,106.251,40.385,162.776,42.273,9.941.332,20.079-.767,29.234-4.657,7.968-3.386,14.911-8.751,22.437-13.031,37.979-21.6,85.483-13.445,127.5-1.468S968,640,1010.71,630.8" transform="translate(-136.812 -124.89)" fill="#4d8af0"/>
    <path id="Path_261" data-name="Path 261" d="M136.812,660.35c7.436-20.076,30.819-30.532,52.212-29.695s41.318,10.5,60.494,20.022S288.55,669.955,309.933,671c47.519,2.33,87.509-38.126,134.863-42.717,56.293-5.458,106.251,40.385,162.776,42.273,9.941.332,20.079-.767,29.234-4.657,7.968-3.386,14.911-8.751,22.437-13.031,37.979-21.6,85.483-13.445,127.5-1.468s85.638,27.321,128.35,18.12" transform="translate(-136.812 -124.89)" fill="#4d8af0"/>
    <path id="Path_262" data-name="Path 262" d="M238.751,710.134c7.436-20.076,30.819-30.532,52.211-29.695s41.318,10.5,60.494,20.022,39.032,19.278,60.415,20.327c47.519,2.33,87.509-38.126,134.863-42.717,56.293-5.458,106.251,40.385,162.776,42.273,9.941.332,20.079-.767,29.234-4.657,7.968-3.386,14.911-8.751,22.437-13.031,37.979-21.6,85.483-13.445,127.5-1.468s85.637,27.32,128.349,18.119" transform="translate(-136.812 -124.89)" fill="#4d8af0"/>
    <path id="Path_263" data-name="Path 263" d="M290.906,759.128c7.436-20.076,30.819-30.532,52.211-29.695s41.318,10.5,60.494,20.022,39.032,19.278,60.415,20.327c47.519,2.33,87.509-38.126,134.863-42.717,56.293-5.458,106.251,40.385,162.776,42.273,9.941.332,20.079-.767,29.234-4.657,7.968-3.386,14.911-8.751,22.437-13.031,37.979-21.6,85.483-13.445,127.5-1.468s85.637,27.32,128.349,18.119" transform="translate(-136.812 -124.89)" fill="#4d8af0"/>
    <g id="Group_73" data-name="Group 73" opacity="0.5">
      <path id="Path_264" data-name="Path 264" d="M399.761,238.812l-6.895-1.22a44.53,44.53,0,0,1,.832-5.07c1.17-14.781-9.079-30.335-23.488-34.258l1.844-6.773c13.129,3.574,23.255,14.561,27.1,27.357A48.519,48.519,0,0,1,430.8,195.9l1.388,6.881c-15.1,3.046-27.943,15.89-31.534,30.859A35.465,35.465,0,0,1,399.761,238.812Z" transform="translate(-136.812 -124.89)" fill="url(#linear-gradient)"/>
    </g>
    <path id="Path_265" data-name="Path 265" d="M399.969,235.376l-5.894-1.043a38.054,38.054,0,0,1,.711-4.334c1-12.635-7.761-25.93-20.078-29.283l1.576-5.789c11.223,3.055,19.878,12.447,23.162,23.384A41.473,41.473,0,0,1,426.5,198.7l1.187,5.882c-12.911,2.6-23.885,13.583-26.955,26.377a30.311,30.311,0,0,1-.764,4.421Z" transform="translate(-136.812 -124.89)" fill="#706a6a"/>
    <g id="Group_74" data-name="Group 74" opacity="0.5">
      <path id="Path_266" data-name="Path 266" d="M547.271,175.413l-4.447-.787a28.726,28.726,0,0,1,.537-3.27c.755-9.534-5.856-19.567-15.151-22.1l1.189-4.369c8.469,2.305,15,9.393,17.478,17.646a31.3,31.3,0,0,1,20.415-14.8l.9,4.439c-9.743,1.965-18.024,10.25-20.34,19.9a22.884,22.884,0,0,1-.576,3.336Z" transform="translate(-136.812 -124.89)" fill="url(#linear-gradient)"/>
    </g>
    <g id="Group_75" data-name="Group 75" opacity="0.5">
      <path id="Path_267" data-name="Path 267" d="M818.271,155.413l-4.447-.787a28.713,28.713,0,0,1,.537-3.27c.755-9.534-5.856-19.567-15.151-22.1l1.189-4.369c8.469,2.305,15,9.393,17.478,17.646a31.3,31.3,0,0,1,20.415-14.8l.9,4.439c-9.743,1.965-18.024,10.25-20.34,19.9A22.867,22.867,0,0,1,818.271,155.413Z" transform="translate(-136.812 -124.89)" fill="url(#linear-gradient)"/>
    </g>
    <path id="Path_268" data-name="Path 268" d="M547.6,170.069l-2.89-.511a18.652,18.652,0,0,1,.349-2.125c.491-6.2-3.806-12.715-9.845-14.359l.773-2.839A16.856,16.856,0,0,1,547.34,161.7a20.337,20.337,0,0,1,13.266-9.619l.582,2.884A17.712,17.712,0,0,0,547.97,167.9a14.866,14.866,0,0,1-.374,2.168Z" transform="translate(-136.812 -124.89)" fill="#706a6a"/>
    <path id="Path_269" data-name="Path 269" d="M818.6,150.069l-2.89-.511a18.679,18.679,0,0,1,.349-2.125c.491-6.2-3.806-12.715-9.845-14.359l.773-2.839A16.856,16.856,0,0,1,818.34,141.7a20.337,20.337,0,0,1,13.266-9.619l.582,2.884A17.712,17.712,0,0,0,818.97,147.9a14.866,14.866,0,0,1-.374,2.168Z" transform="translate(-136.812 -124.89)" fill="#706a6a"/>
    <g id="Group_76" data-name="Group 76" opacity="0.5">
      <circle id="Ellipse_21" data-name="Ellipse 21" cx="67" cy="67" r="67" transform="translate(71.375 9.683)" fill="url(#linear-gradient)"/>
    </g>
    <circle id="Ellipse_22" data-name="Ellipse 22" cx="62" cy="62" r="62" transform="translate(76.375 14.683)" fill="#fdd835"/>
  </g>
</svg>
