<svg width="192" height="42" viewBox="0 0 192 42" fill="none" xmlns="http://www.w3.org/2000/svg">
<path d="M64.83 13.72C65.21 13.25 65.55 12.67 65.84 12C66.55 10.28 66.6 8.9 65.88 7.89C65.17 6.79 63.7 6.25 61.6 6.25C59.84 6.25 57.95 6.63 56.86 6.88C55.77 5.08 53.09 1.09 50.36 1.09C48.89 1.09 47.76 2.09 46.92 4.07C46.67 4.61 46.54 5.16 46.46 5.62C43.8145 6.08405 41.3067 7.13522 39.121 8.69618C36.9353 10.2572 35.1273 12.2882 33.83 14.64C32.8872 12.9305 31.6712 11.3868 30.23 10.07C29.73 9.61 29.18 9.19 28.63 8.77C28.84 7.93 28.93 7.09 28.84 6.21C28.7193 4.85585 28.2294 3.56078 27.4236 2.46581C26.6178 1.37084 25.527 0.517943 24.27 0L23.56 1.68C25.49 2.48 26.83 4.28 27 6.38C27.04 6.84 27 7.26 26.95 7.72C24.2449 6.16848 21.1784 5.35789 18.06 5.37C17.52 5.37 17.01 5.41 16.46 5.45C11.7004 5.88454 7.3058 8.18399 4.23523 11.8466C1.16465 15.5092 -0.332662 20.2376 0.0700161 25C0.457123 29.5103 2.54059 33.7058 5.90002 36.74C9.2135 39.7617 13.5356 41.4378 18.02 41.44C18.56 41.44 19.07 41.4 19.62 41.36C22.5587 41.105 25.3892 40.1293 27.8608 38.5194C30.3324 36.9094 32.3689 34.7149 33.79 32.13C35.2122 34.7244 37.2556 36.9255 39.7373 38.5363C42.219 40.1471 45.0614 41.1173 48.01 41.36C48.56 41.4 49.06 41.44 49.61 41.44C54.1066 41.4294 58.4363 39.7363 61.7472 36.6937C65.0581 33.6512 67.1103 29.4796 67.5 25C67.93 20.85 66.88 16.95 64.82 13.72H64.83ZM65.76 24.79C65.3874 28.8223 63.5272 32.5715 60.5418 35.3074C57.5563 38.0432 53.6594 39.5699 49.61 39.59C47.2377 39.5959 44.8936 39.0761 42.7461 38.0681C40.5986 37.06 38.7011 35.5888 37.19 33.76C36.2357 32.6085 35.4294 31.342 34.79 29.99C35.81 27.47 36.27 24.66 36.02 21.77C35.8619 20.0305 35.4649 18.3211 34.84 16.69C35.9157 14.328 37.5376 12.2556 39.5719 10.6438C41.6062 9.032 43.9946 7.92701 46.54 7.42C46.63 7.68 46.75 7.92 46.88 8.14C47.59 9.23 49.06 9.77 51.16 9.77C52.92 9.77 54.81 9.4 55.9 9.14C56.99 10.94 59.67 14.94 62.4 14.94C62.74 14.94 63.07 14.89 63.37 14.76C65.2392 17.7532 66.0785 21.2755 65.76 24.79ZM18.06 39.59C9.76001 39.59 2.66002 33.09 1.91002 24.79C1.57634 20.9646 2.6115 17.145 4.83109 14.0115C7.05069 10.8781 10.3106 8.63434 14.03 7.68C14.2318 9.49927 15.0971 11.1803 16.4604 12.4017C17.8238 13.623 19.5896 14.2989 21.42 14.3C21.62 14.3 21.84 14.3 22.09 14.26C23.0635 14.1835 24.0113 13.9101 24.876 13.4563C25.7406 13.0025 26.5041 12.3777 27.12 11.62C27.42 11.28 27.67 10.91 27.92 10.49C29.7115 11.8552 31.1993 13.5782 32.2891 15.5494C33.3788 17.5205 34.0466 19.6969 34.25 21.94C35.05 30.83 28.42 38.71 19.53 39.51C19.03 39.55 18.53 39.6 18.06 39.6V39.59ZM18.1 7.17C21.12 7.17 23.93 8.01 26.4 9.52C25.8434 10.6076 24.9464 11.4834 23.8457 12.0137C22.7451 12.5441 21.5011 12.6999 20.3037 12.4574C19.1062 12.215 18.0209 11.5876 17.2132 10.6709C16.4055 9.75418 15.9197 8.59847 15.83 7.38V7.34C16.13 7.3 16.38 7.26 16.68 7.26C17.14 7.17 17.6 7.17 18.1 7.17ZM50.36 2.9C51.75 2.9 53.8 5.34 55.14 7.52C54.14 7.72 52.59 8.02 51.16 8.02C49.73 8.02 48.73 7.72 48.39 7.18C47.97 6.6 48.31 5.55 48.6 4.75C49.15 3.53 49.73 2.9 50.36 2.9ZM64.37 8.86C64.79 9.45 64.46 10.5 64.17 11.29C63.66 12.55 63.03 13.19 62.4 13.19C61.02 13.19 58.96 10.75 57.62 8.57C58.62 8.36 60.18 8.07 61.6 8.07C63.03 8.02 64.04 8.31 64.37 8.86Z" fill="#BA0029"/>
<path d="M43.9901 22.27C44.9101 22.36 45.7501 21.64 45.8301 20.72C45.8663 20.2699 45.724 19.8236 45.434 19.4775C45.144 19.1313 44.7295 18.9131 44.2801 18.87C43.8284 18.8339 43.3807 18.9775 43.0343 19.2696C42.6879 19.5617 42.4708 19.9787 42.4301 20.43C42.3901 21.35 43.0601 22.19 43.9901 22.27ZM55.6001 19.88C55.1522 19.8491 54.7099 19.9935 54.3665 20.2828C54.0232 20.572 53.8057 20.9834 53.7601 21.43C53.6801 22.36 54.3901 23.19 55.3101 23.28C56.2301 23.36 57.0701 22.65 57.1601 21.73C57.2401 20.76 56.5701 19.93 55.6101 19.88H55.6001ZM48.8101 32.34C47.3258 32.2102 45.9535 31.4975 44.9938 30.3578C44.0341 29.2182 43.5653 27.7446 43.6901 26.26L41.8901 26.09C41.7262 28.0508 42.3435 29.9969 43.6078 31.5046C44.872 33.0123 46.6807 33.9595 48.6401 34.14C48.8501 34.14 49.0601 34.18 49.3101 34.18C51.1677 34.1769 52.9568 33.478 54.3247 32.2212C55.6926 30.9643 56.5401 29.2407 56.7001 27.39L54.9001 27.22C54.8423 27.9583 54.6382 28.6777 54.2996 29.3363C53.961 29.9949 53.4947 30.5795 52.9279 31.056C52.361 31.5326 51.705 31.8915 50.998 32.112C50.2911 32.3324 49.5473 32.4099 48.8101 32.34ZM12.3601 23.24C12.8095 23.1968 13.224 22.9786 13.514 22.6325C13.804 22.2863 13.9463 21.8401 13.9101 21.39C13.8669 20.9405 13.6487 20.526 13.3026 20.236C12.9564 19.946 12.5102 19.8038 12.0601 19.84C11.1401 19.92 10.4301 20.76 10.5101 21.69C10.5289 21.9135 10.5918 22.1312 10.6952 22.3303C10.7985 22.5294 10.9403 22.7061 11.1123 22.8502C11.2843 22.9943 11.4831 23.1029 11.6972 23.1698C11.9114 23.2367 12.1366 23.2606 12.3601 23.24ZM23.6801 22.27C24.1277 22.2268 24.5406 22.01 24.8303 21.6661C25.12 21.3221 25.2635 20.8784 25.2301 20.43C25.1893 19.9806 24.9736 19.5651 24.6294 19.2733C24.2852 18.9815 23.8401 18.8366 23.3901 18.87C22.4701 18.96 21.7501 19.8 21.8401 20.72C21.8589 20.9426 21.9215 21.1594 22.0243 21.3578C22.127 21.5562 22.2678 21.7325 22.4387 21.8764C22.6096 22.0204 22.8072 22.1292 23.0202 22.1968C23.2332 22.2643 23.4574 22.2892 23.6801 22.27ZM23.9801 26.26C24.0875 27.3729 23.8593 28.4926 23.3248 29.4747C22.7904 30.4569 21.9741 31.2565 20.9812 31.7707C19.9883 32.2849 18.8642 32.4901 17.7537 32.3599C16.6432 32.2296 15.597 31.7699 14.7501 31.04C14.1859 30.5647 13.7214 29.9825 13.3832 29.3269C13.0451 28.6712 12.8401 27.9552 12.7801 27.22L10.9801 27.39C11.0553 28.3627 11.3272 29.3101 11.7793 30.1747C12.2313 31.0393 12.8542 31.8031 13.6101 32.42C14.9514 33.5447 16.6497 34.1545 18.4001 34.14C18.6001 34.14 18.8601 34.14 19.0701 34.1C21.0294 33.9195 22.8381 32.9723 24.1023 31.4646C25.3666 29.9569 25.984 28.0107 25.8201 26.05L23.9801 26.25V26.26Z" fill="#BA0029"/>
<path d="M82.61 16.7999H85.83C85.83 17.4499 85.73 18.1599 85.63 18.7099H85.68C85.9047 18.0699 86.3294 17.5193 86.8913 17.1393C87.4531 16.7593 88.1223 16.5702 88.8 16.5999C91.07 16.5999 92.78 18.2599 92.78 21.0799C92.78 24.1999 90.92 26.4599 87.7 26.4599C87.04 26.4599 86.39 26.3599 85.83 26.1599L85.78 29.3299H87.29V30.8399H82.76V29.3399H83.82L83.87 18.3099H82.6V16.7999H82.61ZM85.93 24.4499C86.33 24.6999 86.99 24.8499 87.75 24.8499C89.61 24.8499 90.67 23.2499 90.67 21.3799C90.67 19.6199 89.91 18.3099 88.4 18.3099C86.74 18.3099 85.93 19.6699 85.93 21.8299V24.4499ZM99.07 16.5999C102.55 16.5999 103.71 19.2699 103.71 21.5799C103.71 24.2499 102.09 26.4599 98.82 26.4599C95.45 26.4599 94.14 24.1499 94.14 21.7299C94.14 18.6599 96.2 16.5999 99.07 16.5999ZM98.92 24.7499C100.78 24.7499 101.59 23.1899 101.59 21.3799C101.59 19.2699 100.49 18.3099 99.07 18.3099C97.06 18.3099 96.3 19.9699 96.3 21.6799C96.3 23.2399 97.06 24.7499 98.92 24.7499ZM104.76 16.7999H107.98C107.98 17.4499 107.88 18.1599 107.78 18.7099H107.83C108.055 18.0682 108.481 17.5163 109.045 17.1362C109.609 16.7561 110.281 16.568 110.96 16.5999C113.22 16.5999 114.88 18.2599 114.88 21.0799C114.88 24.1999 113.02 26.4599 109.8 26.4599C109.14 26.4599 108.49 26.3599 107.94 26.1599L107.88 29.3299H109.4V30.8399H104.86V29.3399H105.92L105.97 18.3099H104.77V16.7999H104.76ZM108.09 24.4499C108.49 24.6999 109.14 24.8499 109.89 24.8499C111.76 24.8499 112.82 23.2499 112.82 21.3799C112.82 19.6199 112.06 18.3099 110.55 18.3099C108.89 18.3099 108.09 19.6699 108.09 21.8299V24.4499ZM130.04 25.7999C129.38 26.0599 128.12 26.4599 126.71 26.4599C123.59 26.4599 121.73 24.4999 121.73 21.5799C121.73 18.8099 123.29 16.5999 126.36 16.5999C129.18 16.5999 130.64 18.6599 130.64 21.5799V21.8299H123.89C123.89 23.6399 125.25 24.8499 127.12 24.8499C128.28 24.8499 129.33 24.5499 130.14 24.1499L130.04 25.8099V25.7999ZM128.48 20.4699V20.2699C128.48 19.5199 127.98 18.0599 126.26 18.0599C124.55 18.0599 123.94 19.3199 123.89 20.4699H128.48ZM136.98 16.7999H140.21C140.21 17.4499 140.11 18.1599 140.01 18.7099H140.06C140.285 18.0699 140.709 17.5193 141.271 17.1393C141.833 16.7593 142.502 16.5702 143.18 16.5999C145.44 16.5999 147.1 18.2599 147.1 21.0799C147.1 24.1999 145.24 26.4599 142.02 26.4599C141.36 26.4599 140.71 26.3599 140.16 26.1599L140.11 29.3299H141.61V30.8399H137.08V29.3399H138.14L138.19 18.3099H137V16.7999H136.98ZM140.31 24.4499C140.71 24.6999 141.37 24.8499 142.12 24.8499C143.98 24.8499 145.04 23.2499 145.04 21.3799C145.04 19.6199 144.29 18.3099 142.77 18.3099C141.11 18.3099 140.31 19.6699 140.31 21.8299V24.4499ZM153.5 16.5999C156.97 16.5999 158.13 19.2699 158.13 21.5799C158.13 24.2499 156.52 26.4599 153.25 26.4599C149.87 26.4599 148.56 24.1499 148.56 21.7299C148.56 18.6599 150.58 16.5999 153.5 16.5999ZM153.3 24.7499C155.16 24.7499 155.96 23.1899 155.96 21.3799C155.96 19.2699 154.86 18.3099 153.45 18.3099C151.43 18.3099 150.68 19.9699 150.68 21.6799C150.68 23.2399 151.48 24.7499 153.3 24.7499ZM159.19 16.7999H162.41C162.41 17.4499 162.31 18.1599 162.21 18.7099H162.26C162.485 18.0699 162.909 17.5193 163.471 17.1393C164.033 16.7593 164.702 16.5702 165.38 16.5999C167.65 16.5999 169.31 18.2599 169.31 21.0799C169.31 24.1999 167.44 26.4599 164.22 26.4599C163.57 26.4599 162.92 26.3599 162.36 26.1599L162.31 29.3299H163.81V30.8399H159.29V29.3399H160.35L160.4 18.3099H159.09V16.7999H159.19ZM162.51 24.4499C162.91 24.6999 163.57 24.8499 164.32 24.8499C166.19 24.8499 167.24 23.2499 167.24 21.3799C167.24 19.6199 166.49 18.3099 164.98 18.3099C163.32 18.3099 162.51 19.6699 162.51 21.8299V24.4499ZM170.57 16.7999H173.79C173.79 17.4499 173.69 18.1599 173.59 18.7099H173.64C173.865 18.0699 174.289 17.5193 174.851 17.1393C175.413 16.7593 176.082 16.5702 176.76 16.5999C179.02 16.5999 180.69 18.2599 180.69 21.0799C180.69 24.1999 178.82 26.4599 175.6 26.4599C174.95 26.4599 174.3 26.3599 173.74 26.1599L173.69 29.3299H175.19V30.8399H170.67V29.3399H171.72L171.77 18.3099H170.47V16.7999H170.57ZM173.89 24.4499C174.29 24.6999 174.95 24.8499 175.7 24.8499C177.56 24.8499 178.62 23.2499 178.62 21.3799C178.62 19.6199 177.87 18.3099 176.35 18.3099C174.69 18.3099 173.89 19.6699 173.89 21.8299V24.4499ZM183 17.4499C183.5 17.1999 184.71 16.5999 186.73 16.5999C189.5 16.5999 190.4 17.9599 190.4 20.2199C190.4 21.7299 190.35 23.2399 190.35 24.7499H191.61V26.2599H188.64C188.64 25.6599 188.69 24.9599 188.79 24.2999H188.74C188.34 25.3599 187.58 26.4599 185.62 26.4599C183.35 26.4599 182.6 24.9599 182.6 23.7499C182.6 21.2799 185.12 20.9299 186.68 20.8799L188.64 20.7799V20.0799C188.64 18.9099 188.24 18.1099 186.58 18.1099C185.88 18.1099 185.17 18.3099 184.86 18.4099V19.7699H183.06V17.4499H183ZM186.12 24.8499C187.68 24.8499 188.54 23.6499 188.54 22.4399V22.0799C186.43 22.0799 184.61 22.1799 184.61 23.5899C184.61 24.2899 185.17 24.8499 186.12 24.8499Z" fill="#616365"/>
</svg>
