<svg id="ADVERTISING" xmlns="http://www.w3.org/2000/svg" xmlns:xlink="http://www.w3.org/1999/xlink" width="64" height="64" viewBox="0 0 64 64"><defs><style>.cls-1,.cls-10,.cls-12,.cls-13,.cls-16,.cls-4,.cls-5{fill:none;}.cls-2{fill:#5592bc;}.cls-3{fill:#d0e7fc;}.cls-4,.cls-5{stroke:#d0e7fc;}.cls-10,.cls-13,.cls-4,.cls-5{stroke-linecap:round;}.cls-10,.cls-14,.cls-16,.cls-4{stroke-linejoin:round;}.cls-10,.cls-12,.cls-13,.cls-14,.cls-16,.cls-4,.cls-5{stroke-width:2px;}.cls-12,.cls-13,.cls-5{stroke-miterlimit:10;}.cls-14,.cls-6{fill:#87cfff;}.cls-7{clip-path:url(#clip-path);}.cls-8{fill:#e1f1ff;}.cls-9{fill:#9ed6fd;}.cls-10,.cls-12,.cls-13,.cls-14,.cls-16{stroke:#5592bc;}.cls-11{fill:#cde3fa;}.cls-15{fill:#fff;}</style><clipPath id="clip-path"><ellipse class="cls-1" cx="48" cy="42.21" rx="16" ry="15.54"/></clipPath></defs><title>ADVERTISING</title><path class="cls-2" d="M10,53a1,1,0,0,1,0-2c2,0,4.47-3.34,5.17-4.51A1,1,0,0,1,16,46h6a3.1,3.1,0,0,0,2.41-.82A2.44,2.44,0,0,0,25,44H15c-2.32,0-4.09,3.41-4.11,3.45A1,1,0,0,1,10,48H6a1,1,0,0,1,0-2H9.42c.74-1.22,2.73-4,5.58-4H26a1,1,0,0,1,1,.88,5,5,0,0,1-1.08,3.62A5,5,0,0,1,22,48H16.55C15.64,49.39,13,53,10,53Z"/><path class="cls-3" d="M22,0H2A2,2,0,0,0,0,2V14a2,2,0,0,0,2,2H22a2,2,0,0,0,2-2V2A2,2,0,0,0,22,0Zm0,14H2V2H22Z"/><polyline class="cls-4" points="21.72 1.44 12.19 7.41 1.59 1.31"/><line class="cls-5" x1="2.2" y1="14" x2="8.96" y2="9.18"/><line class="cls-5" x1="22.83" y1="14" x2="15.01" y2="9.18"/><path class="cls-2" d="M8,20H2a2,2,0,0,0-2,2v8a2,2,0,0,0,2,2H8a2,2,0,0,0,2-2V22A2,2,0,0,0,8,20ZM8,30H2V22H8Z"/><polygon class="cls-6" points="32 35.77 22 34 22 18 32 16.23 32 35.77"/><path class="cls-4" d="M62.74,48.26a15.51,15.51,0,0,1-3.43,4.94,16,16,0,0,1-5.08,3.33,16.47,16.47,0,0,1-12.46,0,16.06,16.06,0,0,1-5.09-3.33,15.51,15.51,0,0,1-3.43-4.94"/><g class="cls-7"><path class="cls-8" d="M60,40V64a2,2,0,0,1-2,2H38a2,2,0,0,1-2-2V36a2,2,0,0,1,2-2H54"/><path class="cls-3" d="M60,40H56a2,2,0,0,1-2-2V34Z"/><rect class="cls-3" x="38" y="40" width="12" height="2"/><rect class="cls-3" x="42" y="44" width="12" height="2"/><rect class="cls-3" x="42" y="48" width="12" height="2"/></g><path class="cls-4" d="M62.74,48.26a15.51,15.51,0,0,1-3.43,4.94,16,16,0,0,1-5.08,3.33,16.47,16.47,0,0,1-12.46,0,16.06,16.06,0,0,1-5.09-3.33,15.51,15.51,0,0,1-3.43-4.94"/><polygon class="cls-9" points="52.9 54.77 57.49 56.12 62.08 57.47 57.7 59.58 55.59 63.96 54.24 59.37 52.9 54.77"/><rect class="cls-9" x="58.67" y="58.81" width="1.6" height="4.8" transform="translate(-25.86 59.84) rotate(-44.9)"/><path class="cls-10" d="M41,12c-8,4-20,6-20,6V34s12,0,20,4Z"/><ellipse class="cls-11" cx="43" cy="25" rx="5" ry="15"/><rect class="cls-11" x="8" y="18" width="12" height="16"/><path class="cls-2" d="M20,16H8a2,2,0,0,0-2,2V34a2,2,0,0,0,2,2H20a2,2,0,0,0,2-2V18A2,2,0,0,0,20,16Zm0,18H8V18H20Z"/><path class="cls-6" d="M38,22c2.67,0,4,1.35,4,3s-1.33,3-4,3Z"/><path class="cls-2" d="M38.23,20,38,20v2l.23,0a3,3,0,0,1,0,6L38,28v2l.23,0a5,5,0,0,0,0-10Z"/><ellipse class="cls-12" cx="43" cy="25" rx="5" ry="15"/><rect class="cls-6" x="2" y="22" width="4" height="8"/><path class="cls-13" d="M57.83,37c6.31-6.64,6.86-17.11,0-22.47"/><path class="cls-13" d="M57.5,31a8.67,8.67,0,0,0,0-12.07"/><rect class="cls-11" x="2" y="46" width="2" height="16"/><polygon class="cls-14" points="16.62 36.66 30.44 49.75 20.61 50.45 11.09 41.15 16.62 36.66"/><path class="cls-2" d="M0,44V64H6V44ZM4,62H2V46H4Z"/><path class="cls-2" d="M29,52H23a3,3,0,0,1,0-6h6a3,3,0,0,1,0,6Zm-6-4a1,1,0,0,0,0,2h6a1,1,0,0,0,0-2Z"/><path class="cls-15" d="M23,48a1,1,0,0,0,0,2h6a1,1,0,0,0,0-2Z"/><path class="cls-15" d="M23,52a1,1,0,0,0,0,2h6a1,1,0,0,0,0-2Z"/><path class="cls-15" d="M23,56a1,1,0,0,0,0,2h6a1,1,0,0,0,0-2Z"/><path class="cls-2" d="M29,56H23a3,3,0,0,1,0-6h6a3,3,0,0,1,0,6Zm-6-4a1,1,0,0,0,0,2h6a1,1,0,0,0,0-2Z"/><path class="cls-2" d="M29,60H23a3,3,0,0,1,0-6h6a3,3,0,0,1,0,6Zm-6-4a1,1,0,0,0,0,2h6a1,1,0,0,0,0-2Z"/><path class="cls-2" d="M27,64H23a3,3,0,0,1,0-6h4a3,3,0,0,1,0,6Zm-4-4a1,1,0,0,0,0,2h4a1,1,0,0,0,0-2Z"/><path class="cls-2" d="M24,64H14a4.58,4.58,0,0,1-2.41-1A4.71,4.71,0,0,0,9.2,62H6V60H9.2a6.4,6.4,0,0,1,3.48,1.33A3.82,3.82,0,0,0,14,62H24Z"/><path class="cls-16" d="M22,35H9.63l1.54,6.46S16.16,35,22,35Z"/></svg>