<svg id="board_Analysis" data-name="board,Analysis" xmlns="http://www.w3.org/2000/svg" width="64" height="64" viewBox="0 0 64 64"><defs><style>.cls-1{fill:#cde3fa;}.cls-2{fill:#5592bc;}.cls-3,.cls-8{fill:none;stroke-linecap:round;}.cls-3,.cls-9{stroke:#5592bc;}.cls-3{stroke-linejoin:round;}.cls-3,.cls-8,.cls-9{stroke-width:2px;}.cls-4{fill:#edcbc5;}.cls-5,.cls-9{fill:#87cfff;}.cls-6{fill:#ef9884;}.cls-7{fill:#d0e7fc;}.cls-8{stroke:#d0e7fc;}.cls-8,.cls-9{stroke-miterlimit:10;}</style></defs><title>board,Analysis</title><path class="cls-1" d="M32,2a6.51,6.51,0,0,1,5.66,4H26.34A6.51,6.51,0,0,1,32,2Z"/><path class="cls-2" d="M32,0a8.28,8.28,0,0,0-8,8H40A8.28,8.28,0,0,0,32,0Zm0,2a6.51,6.51,0,0,1,5.66,4H26.34A6.51,6.51,0,0,1,32,2Z"/><line class="cls-3" x1="31" y1="49" x2="31" y2="57"/><line class="cls-3" x1="32" y1="55.72" x2="44" y2="63"/><line class="cls-3" x1="30.03" y1="55.72" x2="18" y2="63"/><path class="cls-4" d="M17,25a7,7,0,1,0,7,7A7,7,0,0,0,17,25Zm0,12a5,5,0,1,1,5-5A5,5,0,0,1,17,37Z"/><path class="cls-1" d="M17,21A11,11,0,1,0,28,32,11,11,0,0,0,17,21Zm0,20a9,9,0,1,1,9-9A9,9,0,0,1,17,41Z"/><path class="cls-2" d="M25.9,31a8.87,8.87,0,0,1,.1,1,9,9,0,1,1-10-8.9V21.05A11,11,0,1,0,28,32c0-.34,0-.67-.05-1Z"/><path class="cls-5" d="M23.3,29a6.91,6.91,0,0,1,.7,3,7,7,0,1,1-14,0,6.91,6.91,0,0,1,.7-3H8.55a9,9,0,1,0,16.9,0Z"/><path class="cls-6" d="M21.9,33a5,5,0,0,1-9.8,0h-2a7,7,0,0,0,13.8,0Z"/><polyline class="cls-3" points="28.44 42.53 34.81 28.24 45 35.35 55 22.72"/><path class="cls-2" d="M35,24.72a3,3,0,1,0,3,3A3,3,0,0,0,35,24.72Zm0,4a1,1,0,1,1,1-1A1,1,0,0,1,35,28.72Z"/><circle class="cls-1" cx="35" cy="27.72" r="1"/><path class="cls-2" d="M45,30.72a3,3,0,1,0,3,3A3,3,0,0,0,45,30.72Zm0,4a1,1,0,1,1,1-1A1,1,0,0,1,45,34.72Z"/><circle class="cls-1" cx="45" cy="33.72" r="1"/><path class="cls-2" d="M55,18.72a3,3,0,1,0,3,3A3,3,0,0,0,55,18.72Zm0,4a1,1,0,1,1,1-1A1,1,0,0,1,55,22.72Z"/><circle class="cls-5" cx="55" cy="21.72" r="1"/><path class="cls-7" d="M42,48A11,11,0,1,0,53,37,11,11,0,0,0,42,48Zm1.5,1h.7c.41,0,.73-.59.73-1s-.33-1-.73-1h-.7A9.3,9.3,0,0,1,52,38.5v.7c0,.41.6.73,1,.73s1-.33,1-.73v-.7A9.3,9.3,0,0,1,62.5,47h-.7c-.41,0-.73.6-.73,1s.33,1,.73,1h.7c-.36,4-4.5,8.14-8.5,8.5v-.7c0-.41-.6-.73-1-.73s-1,.33-1,.73v.7C48,57.14,43.86,53,43.5,49Z"/><line class="cls-8" x1="53" y1="48" x2="53" y2="44"/><polygon class="cls-7" points="52 50 55.1 50 57.9 50 58.82 49 57.9 48 55.1 48 52 48 52 49.24 52 50"/><rect class="cls-9" x="1" y="8" width="62" height="6" rx="2" ry="2"/><rect class="cls-1" x="4" y="15" width="56" height="2"/><path class="cls-2" d="M62,39V15a2,2,0,0,0-2-2H4a2,2,0,0,0-2,2V47a2,2,0,0,0,2,2H40V47H4V15H60V39Z"/></svg>