<svg id="broadcast" xmlns="http://www.w3.org/2000/svg" width="64" height="64" viewBox="0 0 64 64"><defs><style>.cls-1{fill:#fff;}.cls-2{fill:#5592bc;}.cls-3{fill:#cde3fa;}.cls-4{fill:none;stroke:#5592bc;stroke-miterlimit:10;stroke-width:2px;}</style></defs><title>broadcast</title><circle class="cls-1" cx="31" cy="13.01" r="3"/><path class="cls-2" d="M31,8a5,5,0,1,0,5,5A5,5,0,0,0,31,8Zm0,8a3,3,0,1,1,3-3A3,3,0,0,1,31,16Z"/><polygon class="cls-3" points="48 36.01 48 44.01 40 44.01 40 40.01 38 40.01 38 64.01 40 64.01 48 64.01 52 64.01 52 36.01 48 36.01"/><polygon class="cls-3" points="36.68 63.02 19.78 24.98 3.32 63.02 1.85 62.38 19.77 21 38.15 62.37 36.68 63.02"/><path class="cls-3" d="M25.42,38H14.22c-.44,0-.8-.56-.8-1s.36-1,.8-1h11.2c.44,0,.8.55.8,1S25.86,38,25.42,38Z"/><path class="cls-3" d="M30.22,48H9.42c-.44,0-.8-.56-.8-1s.36-1,.8-1h20.8c.44,0,.8.56.8,1S30.66,48,30.22,48Z"/><path class="cls-3" d="M35,60H4.62c-.44,0-.8-.56-.8-1s.36-1,.8-1H35c.44,0,.8.56.8,1S35.46,60,35,60Z"/><path class="cls-3" d="M10,48a.8.8,0,0,1-.58-1.35L18.54,37a.8.8,0,0,1,1.16,1.11l-9.15,9.6A.8.8,0,0,1,10,48Z"/><path class="cls-3" d="M30.32,48a.8.8,0,0,1-.58-.25l-9.15-9.6A.8.8,0,0,1,21.75,37l9.15,9.6a.8.8,0,0,1,0,1.13A.79.79,0,0,1,30.32,48Z"/><path class="cls-3" d="M21.17,59.16a.8.8,0,0,1-.58-1.35l9.15-9.6a.8.8,0,0,1,1.16,1.1l-9.15,9.6A.8.8,0,0,1,21.17,59.16Z"/><path class="cls-3" d="M19.12,59.16a.8.8,0,0,1-.58-.25l-9.15-9.6a.8.8,0,1,1,1.16-1.1l9.15,9.6a.8.8,0,0,1-.58,1.35Z"/><path class="cls-3" d="M19.82,38c-.3,0-.58-.56-.71-.83l-3.17-6.49a.92.92,0,0,1,.36-1.17.78.78,0,0,1,1.07.31l2.39,4.73,1.9-4.49a.8.8,0,1,1,1.47.62l-2.57,6.45c-.12.29-.4.88-.71.88Z"/><circle class="cls-3" cx="31" cy="15.01" r="13"/><polygon class="cls-2" points="52.08 64.04 30.96 16.5 10.38 64.03 8.55 63.24 30.93 11.52 53.91 63.23 52.08 64.04"/><path class="cls-2" d="M38,32H24a1,1,0,0,1,0-2H38a1,1,0,0,1,0,2Z"/><path class="cls-2" d="M34,24H28a1,1,0,0,1,0-2h6a1,1,0,0,1,0,2Z"/><path class="cls-2" d="M44,46H18a1,1,0,0,1,0-2H44a1,1,0,0,1,0,2Z"/><path class="cls-2" d="M50,60H12a1,1,0,0,1,0-2H50a1,1,0,0,1,0,2Z"/><path class="cls-2" d="M18.69,45.22A1,1,0,0,1,18,43.53l11.44-12a1,1,0,1,1,1.45,1.38l-11.44,12A1,1,0,0,1,18.69,45.22Z"/><path class="cls-2" d="M44.13,45.22a1,1,0,0,1-.72-.31L32,32.91a1,1,0,1,1,1.45-1.38l11.44,12a1,1,0,0,1-.72,1.69Z"/><path class="cls-2" d="M32.69,59.22A1,1,0,0,1,32,57.53l11.44-12a1,1,0,1,1,1.45,1.38l-11.44,12A1,1,0,0,1,32.69,59.22Z"/><path class="cls-2" d="M30.13,59.22a1,1,0,0,1-.72-.31L18,46.91a1,1,0,1,1,1.45-1.38l11.44,12a1,1,0,0,1-.72,1.69Z"/><path class="cls-2" d="M31,32a1.11,1.11,0,0,1-.89-.65l-4-7.92a1,1,0,0,1,.44-1.37,1,1,0,0,1,1.34.43l3,5.94,2.38-5.59a1,1,0,1,1,1.84.78l-3.22,7.68A1.09,1.09,0,0,1,31,32Z"/><path class="cls-2" d="M24.64,21.37a9,9,0,1,1,12.72,0l1.42,1.42a11,11,0,1,0-15.56,0Z"/><path class="cls-2" d="M22,24A12.69,12.69,0,1,1,40,24l1.63,1.64a15,15,0,1,0-21.21,0Z"/><rect class="cls-2" x="30" y="30" width="2" height="34"/><path class="cls-2" d="M46,29.31a1,1,0,0,1-.7-.3.94.94,0,0,1-.3-.7.91.91,0,0,1,.3-.7,1,1,0,0,1,1.7.7,1,1,0,0,1-.28.7A1,1,0,0,1,46,29.31Z"/><path class="cls-2" d="M47.37,25.43a1,1,0,0,1-.64-1.28h0A1,1,0,0,1,48,23.53h0a1,1,0,0,1,.62,1.28h0a1,1,0,0,1-.94.66h0A.83.83,0,0,1,47.37,25.43Zm1.16-4a1,1,0,0,1-.84-1.14h0a1,1,0,0,1,1.14-.84h0a1,1,0,0,1,.84,1.14h0a1,1,0,0,1-1,.84h-.16ZM48,16.27a1,1,0,0,1,1-1h0a1,1,0,0,1,1,1h0a1,1,0,0,1-1,1h0A1,1,0,0,1,48,16.27Zm-.44-4a1,1,0,0,1,.78-1.18h0a1,1,0,0,1,1.18.8h0a1,1,0,0,1-.8,1.18h0l-.18,0h0A1,1,0,0,1,47.53,12.27ZM46.41,8.43h0A1,1,0,0,1,47,7.13h0a1,1,0,0,1,1.3.58h0A1,1,0,0,1,47.71,9h0a.85.85,0,0,1-.38.08h0A1,1,0,0,1,46.41,8.43Zm-1.78-3.6A1,1,0,0,1,45,3.45h0a1,1,0,0,1,1.38.34h0A1,1,0,0,1,46,5.17h0a1,1,0,0,1-.52.14h0A1,1,0,0,1,44.63,4.83ZM42.27,1.59h0a1,1,0,0,1,.1-1.4h0a1,1,0,0,1,1.42.08h0a1,1,0,0,1-.1,1.42h0a1,1,0,0,1-.66.24h0A1,1,0,0,1,42.27,1.59Z"/><path class="cls-2" d="M16,29.31a1,1,0,0,0,.7-.3.94.94,0,0,0,.3-.7.91.91,0,0,0-.3-.7,1,1,0,0,0-1.7.7,1,1,0,0,0,.28.7A1,1,0,0,0,16,29.31Z"/><path class="cls-2" d="M14.31,25.47h0a1,1,0,0,1-.94-.66h0A1,1,0,0,1,14,23.53h0a1,1,0,0,1,1.28.62h0a1,1,0,0,1-.64,1.28A.83.83,0,0,1,14.31,25.47Zm-1-4.06h0a1,1,0,0,1-1-.84h0a1,1,0,0,1,.84-1.14h0a1,1,0,0,1,1.14.84h0a1,1,0,0,1-.84,1.14ZM13,17.25h0a1,1,0,0,1-1-1h0a1,1,0,0,1,1-1h0a1,1,0,0,1,0,2Zm.46-4.16h0l-.18,0h0a1,1,0,0,1-.8-1.18h0a1,1,0,0,1,1.18-.8h0a1,1,0,0,1-.2,2Zm1.18-4h0A.85.85,0,0,1,14.29,9h0a1,1,0,0,1-.56-1.28h0A1,1,0,0,1,15,7.13h0a1,1,0,0,1,.56,1.3h0A1,1,0,0,1,14.67,9.07Zm1.84-3.76h0A1,1,0,0,1,16,5.17h0a1,1,0,0,1-.34-1.38h0A1,1,0,0,1,17,3.45h0a1,1,0,0,1,.34,1.38A1,1,0,0,1,16.51,5.31ZM19,1.93h0a1,1,0,0,1-.66-.24h0a1,1,0,0,1-.1-1.42h0A1,1,0,0,1,19.63.19h0a1,1,0,0,1,.1,1.4h0A1,1,0,0,1,19,1.93Z"/><polygon class="cls-3" points="62 22.01 62 18.01 60 18.01 60 14.01 58 14.01 58 18.01 56 18.01 56 22.01 54 22.01 54 64.01 64 64.01 64 22.01 62 22.01"/><line class="cls-4" y1="63" x2="64" y2="63"/></svg>