<svg id="communication_global" data-name="communication,global" xmlns="http://www.w3.org/2000/svg" width="64" height="64" viewBox="0 0 64 64"><defs><style>.cls-1{fill:#87cfff;}.cls-2{fill:#aad9fd;}.cls-3{fill:none;stroke:#5592bc;stroke-miterlimit:10;stroke-width:2px;}.cls-4{fill:#5592bc;}.cls-5{fill:#4dbfff;}.cls-6{fill:#cde3fa;}.cls-7{fill:#feffff;}</style></defs><title>communication,global</title><path class="cls-1" d="M34,0H8V37a5,5,0,0,0,10,0V24H34Z"/><path class="cls-2" d="M21,10a5,5,0,0,0-5,5V36c0,1.11.44,6-4,6H24a2,2,0,0,0,2-2V15A5,5,0,0,0,21,10Z"/><rect class="cls-3" x="4" y="15" width="56" height="40" rx="2" ry="2"/><rect class="cls-4" x="20" y="46" width="36" height="6"/><path class="cls-4" d="M24.1,56A5.3,5.3,0,0,0,29,60h6a5.3,5.3,0,0,0,4.9-4Z"/><rect class="cls-5" x="22" y="48" width="32" height="2"/><path class="cls-4" d="M62,56a6,6,0,0,1-6,6H8a6,6,0,0,1-6-6H0a8,8,0,0,0,8,8H56a8,8,0,0,0,8-8Z"/><rect class="cls-4" y="54" width="64" height="2"/><path class="cls-6" d="M48,10H20c3.53,0,4,1.56,4,4V50H52V14A4,4,0,0,0,48,10Z"/><rect class="cls-7" x="26" y="16" width="24" height="2"/><rect class="cls-7" x="26" y="26" width="24" height="2"/><rect class="cls-7" x="26" y="30" width="24" height="2"/><rect class="cls-7" x="26" y="34" width="24" height="2"/><rect class="cls-7" x="26" y="38" width="24" height="2"/><rect class="cls-7" x="26" y="42" width="24" height="2"/><rect class="cls-7" x="32" y="20" width="12" height="2"/></svg>