<svg id="Conferance_lesson_people_" data-name="Conferance, lesson, people," xmlns="http://www.w3.org/2000/svg" width="64" height="64" viewBox="0 0 64 64"><defs><style>.cls-1{fill:#5592bc;}.cls-2{fill:#87cfff;}.cls-3{fill:#7bcae7;}</style></defs><title>Conferance, lesson, people,</title><path class="cls-1" d="M20,64V44a2,2,0,0,0-2-2H2a2,2,0,0,0-2,2V64m18,0H2V44H18Z"/><path class="cls-1" d="M42,64V44a2,2,0,0,0-2-2H24a2,2,0,0,0-2,2V64m18,0H24V44H40Z"/><path class="cls-1" d="M64,64V44a2,2,0,0,0-2-2H46a2,2,0,0,0-2,2V64m18,0H46V44H62Z"/><path class="cls-2" d="M2,64V50a2,2,0,0,1,2-2H16a2,2,0,0,1,2,2V64Z"/><path class="cls-2" d="M24,64V50a2,2,0,0,1,2-2H38a2,2,0,0,1,2,2V64Z"/><path class="cls-2" d="M46,64V50a2,2,0,0,1,2-2H60a2,2,0,0,1,2,2V64Z"/><path class="cls-1" d="M16,16v6H48V16Zm30,4H18V18H46Z"/><rect class="cls-1" x="20" y="20" width="2" height="16"/><rect class="cls-1" x="42" y="20" width="2" height="16"/><rect class="cls-2" x="18" y="18" width="28" height="2"/><path class="cls-3" d="M30,8h0Z"/><path class="cls-1" d="M32,10a5,5,0,1,1,5-5A5,5,0,0,1,32,10Zm0-8a3,3,0,1,0,3,3A3,3,0,0,0,32,2Z"/><path class="cls-1" d="M38,10H36.19a6.42,6.42,0,0,1-4.09,2A6.42,6.42,0,0,1,28,10H26c-1.11,0-2-.11-2,1v7H40V11C40,9.89,39.11,10,38,10Zm0,6H26V12h.74c1,0,3,2,5.36,2s4.35-2,5.36-2H38Z"/><path class="cls-1" d="M54,36a5,5,0,1,1,5-5A5,5,0,0,1,54,36Zm0-8a3,3,0,1,0,3,3A3,3,0,0,0,54,28Z"/><path class="cls-1" d="M60,36H58.19a6.42,6.42,0,0,1-4.09,2A6.42,6.42,0,0,1,50,36H48c-1.11,0-2-.11-2,1v7H62V37C62,35.89,61.11,36,60,36Zm0,6H48V38h.74c1,0,3,2,5.36,2s4.35-2,5.36-2H60Z"/><path class="cls-1" d="M32,36a5,5,0,1,1,5-5A5,5,0,0,1,32,36Zm0-8a3,3,0,1,0,3,3A3,3,0,0,0,32,28Z"/><path class="cls-1" d="M38,36H36.19a6.42,6.42,0,0,1-4.09,2A6.42,6.42,0,0,1,28,36H26c-1.11,0-2-.11-2,1v7H40V37C40,35.89,39.11,36,38,36Zm0,6H26V38h.74c1,0,3,2,5.36,2s4.35-2,5.36-2H38Z"/><path class="cls-1" d="M10,36a5,5,0,1,1,5-5A5,5,0,0,1,10,36Zm0-8a3,3,0,1,0,3,3A3,3,0,0,0,10,28Z"/><path class="cls-1" d="M16,36H14.19a6.42,6.42,0,0,1-4.09,2A6.42,6.42,0,0,1,6,36H4c-1.11,0-2-.11-2,1v7H18V37C18,35.89,17.11,36,16,36Zm0,6H4V38h.74c1,0,3,2,5.36,2s4.35-2,5.36-2H16Z"/><path class="cls-1" d="M20.75,6.83l-4.46,4.46A1,1,0,0,0,16,12v4h2V12.41l4.16-4.17Z"/><path class="cls-1" d="M19.59,10.83a1,1,0,0,1-1.41,0h0a1,1,0,0,1,0-1.41l4.24-4.24a1,1,0,0,1,1.41,0h0a1,1,0,0,1,0,1.41Z"/></svg>