<svg id="contribute" xmlns="http://www.w3.org/2000/svg" width="64" height="64" viewBox="0 0 64 64"><defs><style>.cls-1{fill:#cde3fa;}.cls-2{fill:#87cfff;}.cls-3{fill:#5592bc;}.cls-4{fill:#fff;}</style></defs><title>contribute</title><path class="cls-1" d="M37,19a1,1,0,0,1-.46-.11A1,1,0,0,1,36,18V1a1,1,0,0,1,1-1H53a1,1,0,0,1,1,1V13a1,1,0,0,1-1,1H44.32l-6.74,4.81A1,1,0,0,1,37,19ZM38,2V16.06l5.42-3.87A1,1,0,0,1,44,12h8V2Z"/><path class="cls-1" d="M63,27a1,1,0,0,1-.58-.19L55.68,22H45a1,1,0,0,1-1-1V16a1,1,0,0,1,2,0v4H56a1,1,0,0,1,.58.19L62,24.06V10H56a1,1,0,0,1,0-2h7a1,1,0,0,1,1,1V26a1,1,0,0,1-1,1Z"/><rect class="cls-1" x="50" y="16" width="10" height="2"/><rect class="cls-1" x="40" y="4" width="4" height="2"/><rect class="cls-1" x="40" y="8" width="10" height="2"/><path class="cls-1" d="M1,64a1,1,0,0,1-.46-.11A1,1,0,0,1,0,63V46a1,1,0,0,1,1-1H17a1,1,0,0,1,1,1V58a1,1,0,0,1-1,1H8.32L1.58,63.81A1,1,0,0,1,1,64ZM2,47V61.06l5.42-3.87A1,1,0,0,1,8,57h8V47Z"/><rect class="cls-1" x="4" y="49" width="4" height="2"/><rect class="cls-1" x="4" y="53" width="10" height="2"/><rect class="cls-2" x="10" y="15" width="34" height="5"/><path class="cls-3" d="M46,15a2,2,0,0,0-2-2H10a2,2,0,0,0-2,2V45a2,2,0,0,0,2,2H44a2,2,0,0,0,2-2ZM44,45H10V15H44Z"/><rect class="cls-3" x="18" y="34.25" width="36" height="2"/><rect class="cls-2" x="20" y="27" width="34" height="7"/><path class="cls-3" d="M56,27a2,2,0,0,0-2-2H20a2,2,0,0,0-2,2V53a2,2,0,0,0,2,2H54a2,2,0,0,0,2-2ZM54,53H20V27H54Z"/><rect class="cls-4" x="20" y="36" width="34" height="17"/><polygon class="cls-2" points="31.83 40.84 30.41 39.42 27 42.84 27 42.84 25.58 44.25 30.41 49.08 31.83 47.66 28.41 44.25 31.83 40.84"/><polygon class="cls-2" points="41.58 40.84 43 39.42 46.41 42.84 46.41 42.84 47.83 44.25 43 49.08 41.58 47.66 45 44.25 41.58 40.84"/><polygon class="cls-2" points="36 50 34 50 38 40 40 40 36 50"/><rect class="cls-3" x="8" y="20" width="38" height="2"/></svg>