<svg id="cutting" xmlns="http://www.w3.org/2000/svg" width="64" height="64" viewBox="0 0 64 64"><defs><style>.cls-1{fill:#d0e7fc;}.cls-2{fill:#fff;}.cls-3{fill:#5592bc;}.cls-4{fill:#ef9884;}</style></defs><title>cutting</title><path class="cls-1" d="M27,8.83a1,1,0,0,1-1-1v-3a1,1,0,0,0-1-1c-.84,0-3.42,1.93-5.3,3.72a1,1,0,1,1-1.37-1.45C19.39,5.1,23,1.83,25,1.83a3,3,0,0,1,3,3v3A1,1,0,0,1,27,8.83Z"/><path class="cls-1" d="M7,8.83a1,1,0,0,1-1-1v-3a3.05,3.05,0,0,1,3-3c2,0,5.64,3.27,6.7,4.28a1,1,0,1,1-1.37,1.45C12.45,5.75,9.85,3.83,9,3.83a1,1,0,0,0-1,1v3A1,1,0,0,1,7,8.83Z"/><rect class="cls-2" x="2" y="8" width="30" height="2"/><rect class="cls-2" x="4" y="12" width="26" height="16"/><path class="cls-1" d="M2,10V30H32V10ZM30,28H4V12H30Z"/><path class="cls-1" d="M25,16.83a1,1,0,0,1-1-1v-4a1,1,0,0,1,2,0v4A1,1,0,0,1,25,16.83Z"/><path class="cls-1" d="M0,6v6H34V6Zm32,4H2V8H32Z"/><path class="cls-1" d="M22,16v8h6V16Zm4,6H24V18h2Z"/><path class="cls-1" d="M14,6V30h6V6Zm4,22H16V8h2Z"/><rect class="cls-2" x="16" y="8" width="2" height="20"/><path class="cls-1" d="M20,4a2,2,0,0,0-2-2H16a2,2,0,0,0-2,2V6a2,2,0,0,0,2,2h2a2,2,0,0,0,2-2ZM18,5.83H16v-2h2Z"/><rect class="cls-2" x="16" y="4" width="2" height="2"/><path class="cls-3" d="M59.68,52.25a4,4,0,0,1-7,2.67A4.11,4.11,0,0,1,53,49.27a4,4,0,0,1,6.67,3Zm-6,0A2,2,0,0,0,57,53.74a2.05,2.05,0,0,0,.16-2.82,2,2,0,0,0-3.49,1.33Z"/><path class="cls-3" d="M63.91,30.77a8,8,0,0,1-2.56,5.88,7.91,7.91,0,0,1-8.81,1.26L33,56H24.15L48.46,33.5a8,8,0,1,1,15.45-2.74ZM32.18,54,52.24,35.45l.64.44A6,6,0,0,0,60,35.14a6.19,6.19,0,0,0,.32-8.49,6,6,0,0,0-8.48-.29,6.14,6.14,0,0,0-1.28,7.08l.33.54L29.23,54Z"/><path class="cls-3" d="M59.91,30.74h0A4,4,0,0,1,53,33.46a4.11,4.11,0,0,1,.21-5.65,4,4,0,0,1,6.72,2.93Zm-6,0a2,2,0,0,0,4,0h0a2,2,0,0,0-4,0Z"/><path class="cls-3" d="M49.37,40.73l3.61,4a8,8,0,0,1,10.69,7.5h0a8,8,0,0,1-14,5.34,8.12,8.12,0,0,1-1.2-8.84l-3.56-4,1.47-1.36L51,48.5l-.39.63a6.08,6.08,0,0,0-.89,3.16,6,6,0,0,0,10,4.42,6.17,6.17,0,0,0,.46-8.47,6,6,0,0,0-7-1.4l-.67.31-4.63-5Zm-5.34-3-9.83-11-2.93-.27,11.3,12.61L41.1,40.48,26.39,24l8.78.81L45.5,36.39Z"/><path class="cls-4" d="M41,62.83a1,1,0,0,1,1-1h0a1,1,0,0,1,1,1h0a1,1,0,0,1-1,1h0A1,1,0,0,1,41,62.83Zm-4.16,0a1,1,0,0,1,1-1h0a1,1,0,0,1,1,1h0a1,1,0,0,1-1,1h0A1,1,0,0,1,36.85,62.83Zm-4.16,0a1,1,0,0,1,1-1h0a1,1,0,0,1,1,1h0a1,1,0,0,1-1,1h0A1,1,0,0,1,32.69,62.83Zm-4.18,0a1,1,0,0,1,1-1h0a1,1,0,0,1,1,1h0a1,1,0,0,1-1,1h0A1,1,0,0,1,28.51,62.83Zm-4.16,0a1,1,0,0,1,1-1h0a1,1,0,0,1,1,1h0a1,1,0,0,1-1,1h0A1,1,0,0,1,24.35,62.83Zm-4.16,0a1,1,0,0,1,1-1h0a1,1,0,0,1,1,1h0a1,1,0,0,1-1,1h0A1,1,0,0,1,20.19,62.83Zm-4.18,0a1,1,0,0,1,1-1h0a1,1,0,0,1,1,1h0a1,1,0,0,1-1,1h0A1,1,0,0,1,16,62.83Zm-4.16,0a1,1,0,0,1,1-1h0a1,1,0,0,1,1,1h0a1,1,0,0,1-1,1h0A1,1,0,0,1,11.85,62.83Zm-4.16,0a1,1,0,0,1,1-1h0a1,1,0,0,1,1,1h0a1,1,0,0,1-1,1h0A1,1,0,0,1,7.69,62.83Zm-4.16,0a1,1,0,0,1,1-1h0a1,1,0,0,1,1,1h0a1,1,0,0,1-1,1h0A1,1,0,0,1,3.53,62.83ZM0,62.15a1,1,0,0,1,1-1H1a1,1,0,0,1,1,1H2a1,1,0,0,1-1,1H1A1,1,0,0,1,0,62.15Zm44-.48a1,1,0,0,1,1-1h0a1,1,0,0,1,1,1h0a1,1,0,0,1-1,1h0A1,1,0,0,1,44,61.67ZM0,58a1,1,0,0,1,1-1H1a1,1,0,0,1,1,1H2a1,1,0,0,1-1,1H1A1,1,0,0,1,0,58Zm44-.48a1,1,0,0,1,1-1h0a1,1,0,0,1,1,1h0a1,1,0,0,1-1,1h0A1,1,0,0,1,44,57.51ZM0,53.83a1,1,0,0,1,1-1H1a1,1,0,0,1,1,1H2a1,1,0,0,1-1,1H1A1,1,0,0,1,0,53.83Zm44-.48a1,1,0,0,1,1-1h0a1,1,0,0,1,1,1h0a1,1,0,0,1-1,1h0A1,1,0,0,1,44,53.35ZM0,49.65a1,1,0,0,1,1-1H1a1,1,0,0,1,1,1H2a1,1,0,0,1-1,1H1A1,1,0,0,1,0,49.65Zm44-.46a1,1,0,0,1,1-1h0a1,1,0,0,1,1,1h0a1,1,0,0,1-1,1h0A1,1,0,0,1,44,49.19ZM0,45.49a1,1,0,0,1,1-1H1a1,1,0,0,1,1,1H2a1,1,0,0,1-1,1H1A1,1,0,0,1,0,45.49Zm0-4.16a1,1,0,0,1,1-1H1a1,1,0,0,1,1,1H2a1,1,0,0,1-1,1H1A1,1,0,0,1,0,41.33Zm37-.5a1,1,0,0,1,1-1h0a1,1,0,0,1,1,1h0a1,1,0,0,1-1,1h0A1,1,0,0,1,37,40.83Zm-4.16,0a1,1,0,0,1,1-1h0a1,1,0,0,1,1,1h0a1,1,0,0,1-1,1h0A1,1,0,0,1,32.87,40.83Zm-4.18,0a1,1,0,0,1,1-1h0a1,1,0,0,1,1,1h0a1,1,0,0,1-1,1h0A1,1,0,0,1,28.69,40.83Zm-4.16,0a1,1,0,0,1,1-1h0a1,1,0,0,1,1,1h0a1,1,0,0,1-1,1h0A1,1,0,0,1,24.53,40.83Zm-4.16,0a1,1,0,0,1,1-1h0a1,1,0,0,1,1,1h0a1,1,0,0,1-1,1h0A1,1,0,0,1,20.37,40.83Zm-4.18,0a1,1,0,0,1,1-1h0a1,1,0,0,1,1,1h0a1,1,0,0,1-1,1h0A1,1,0,0,1,16.19,40.83Zm-4.16,0a1,1,0,0,1,1-1h0a1,1,0,0,1,1,1h0a1,1,0,0,1-1,1h0A1,1,0,0,1,12,40.83Zm-4.16,0a1,1,0,0,1,1-1h0a1,1,0,0,1,1,1h0a1,1,0,0,1-1,1h0A1,1,0,0,1,7.87,40.83Zm-4.16,0a1,1,0,0,1,1-1h0a1,1,0,0,1,1,1h0a1,1,0,0,1-1,1h0A1,1,0,0,1,3.71,40.83Z"/></svg>