<svg id="design_ink" data-name="design,ink" xmlns="http://www.w3.org/2000/svg" width="64" height="64" viewBox="0 0 64 64"><defs><style>.cls-1{fill:#d0e7fc;}.cls-2{fill:#5592bc;}.cls-3{fill:#87cfff;}.cls-4{fill:#7bcae7;}</style></defs><title>design,ink</title><path class="cls-1" d="M3,18a3,3,0,1,0,3,3A3,3,0,0,0,3,18Zm0,4a1,1,0,1,1,1-1A1,1,0,0,1,3,22Z"/><path class="cls-1" d="M23,18a3,3,0,1,0,3,3A3,3,0,0,0,23,18Zm0,4a1,1,0,1,1,1-1A1,1,0,0,1,23,22Z"/><path class="cls-1" d="M10,16v6h6V16Zm4,4H12V18h2Z"/><rect class="cls-1" x="4" y="20" width="18" height="2"/><path class="cls-1" d="M23,31H21A8,8,0,0,0,5,31H3a10,10,0,0,1,20,0Z"/><path class="cls-1" d="M15.87,50a1,1,0,0,1-.8-1.6L19.88,42,15.67,30H12a1,1,0,0,1,0-2h5.08l5,14.33-5.46,7.26A1,1,0,0,1,15.87,50Z"/><path class="cls-1" d="M10.45,50a1,1,0,0,1-.79-.38L3.88,42.19,8.79,28H14a1,1,0,0,1,0,2H10.21L6.12,41.81l5.11,6.56A1,1,0,0,1,10.45,50Z"/><path class="cls-1" d="M6,48v6H20V48Zm12,4H8V50H18Z"/><path class="cls-1" d="M22,54a2,2,0,0,0-2-2H6a2,2,0,0,0-2,2L3,62a2.13,2.13,0,0,0,2.22,2H20.78A2.13,2.13,0,0,0,23,62Zm-1.22,8H5.22A.34.34,0,0,1,5,61.94l1-7.82V54H20v.13L21,62A.47.47,0,0,1,20.78,62Z"/><path class="cls-1" d="M52.91,34.46h-.14a1,1,0,0,1-.84-.83L50.83,27l-6.73-1a1,1,0,0,1-.3-1.89l5.72-2.82-1.4-6.17a1,1,0,0,1,1.68-.93L54.55,19l6-3a1,1,0,0,1,1.34,1.34l-3,6,4.75,4.75a1,1,0,0,1,.17,1.19,1,1,0,0,1-1.1.5l-6.19-1.38-2.65,5.53A1,1,0,0,1,52.91,34.46Zm-5.33-9.9,4.25.61a1,1,0,0,1,.85.83l.7,4.18L55,26.78a1,1,0,0,1,1.12-.54l3.61.8L56.9,24.21A1,1,0,0,1,56.71,23l2-3.89-3.89,2A1,1,0,0,1,53.64,21l-2.81-2.81.81,3.56a1,1,0,0,1-.53,1.12Z"/><path class="cls-1" d="M41.13,38a1,1,0,0,1-.72-1.74L50.56,26.15A1,1,0,0,1,52,27.59L41.85,37.74A1,1,0,0,1,41.13,38Z"/><path class="cls-2" d="M15,0a3,3,0,1,0,3,3A3,3,0,0,0,15,0Zm0,4a1,1,0,1,1,1-1A1,1,0,0,1,15,4Z"/><circle class="cls-3" cx="15" cy="3" r="1"/><path class="cls-2" d="M49,0a3,3,0,1,0,3,3A3,3,0,0,0,49,0Zm0,4a1,1,0,1,1,1-1A1,1,0,0,1,49,4Z"/><circle class="cls-3" cx="49" cy="3" r="1"/><path class="cls-2" d="M35.87,30a1,1,0,0,1-.8-1.6L39.88,22,35.67,10H32a1,1,0,0,1,0-2h5.08l5,14.33-5.46,7.26A1,1,0,0,1,35.87,30Z"/><path class="cls-2" d="M30.45,30a1,1,0,0,1-.79-.38l-5.78-7.42L28.79,8H34a1,1,0,0,1,0,2H30.21L26.12,21.81l5.11,6.56A1,1,0,0,1,30.45,30Z"/><path class="cls-2" d="M26,28v6H40V28Zm12,4H28V30H38Z"/><path class="cls-2" d="M33,17a1,1,0,0,1-1-1V10a1,1,0,0,1,2,0v6A1,1,0,0,1,33,17Z"/><rect class="cls-1" x="28" y="30" width="10" height="2"/><path class="cls-2" d="M33,16a3,3,0,1,0,3,3A3,3,0,0,0,33,16Zm0,4a1,1,0,1,1,1-1A1,1,0,0,1,33,20Z"/><circle class="cls-4" cx="33" cy="19" r="1"/><path class="cls-2" d="M42,34a2,2,0,0,0-2-2H26a2,2,0,0,0-2,2l-1,8a2.13,2.13,0,0,0,2.22,2H40.78A2.13,2.13,0,0,0,43,42Zm-1.22,8H25.22a.34.34,0,0,1-.21-.06l1-7.82V34H40v.13L41,42A.47.47,0,0,1,40.78,42Z"/><path class="cls-3" d="M25.22,42a.34.34,0,0,1-.21-.06l1-7.82V34H40v.13L41,42a.47.47,0,0,1-.2,0Z"/><path class="cls-2" d="M30,0V6h6V0Zm4,4H32V2h2Z"/><rect class="cls-2" x="16" y="2" width="14" height="2"/><rect class="cls-2" x="36" y="2" width="12" height="2"/><path class="cls-2" d="M61,44a3,3,0,1,0,3,3A3,3,0,0,0,61,44Zm0,4a1,1,0,1,1,1-1A1,1,0,0,1,61,48Z"/><path class="cls-2" d="M45,44a3,3,0,1,0,3,3A3,3,0,0,0,45,44Zm0,4a1,1,0,1,1,1-1A1,1,0,0,1,45,48Z"/><circle class="cls-3" cx="45" cy="47" r="1"/><path class="cls-2" d="M61,58a3,3,0,1,0,3,3A3,3,0,0,0,61,58Zm0,4a1,1,0,1,1,1-1A1,1,0,0,1,61,62Z"/><circle class="cls-3" cx="61" cy="61" r="1"/><path class="cls-2" d="M45,58a3,3,0,1,0,3,3A3,3,0,0,0,45,58Zm0,4a1,1,0,1,1,1-1A1,1,0,0,1,45,62Z"/><rect class="cls-2" x="46" y="46" width="14" height="2"/><rect class="cls-2" x="46" y="60" width="14" height="2"/><rect class="cls-2" x="60" y="48" width="2" height="12"/><rect class="cls-2" x="44" y="48" width="2" height="12"/></svg>