<svg id="document_paper" data-name="document,paper" xmlns="http://www.w3.org/2000/svg" xmlns:xlink="http://www.w3.org/1999/xlink" width="64" height="64" viewBox="0 0 64 64"><defs><style>.cls-1{fill:none;}.cls-2{fill:#aad9fd;}.cls-3{fill:#87cfff;}.cls-4{fill:#d0e7fc;}.cls-5{fill:#fff;}.cls-6{clip-path:url(#clip-path);}.cls-7{fill:#cde3fa;}.cls-8{fill:#5592bc;}</style><clipPath id="clip-path"><path class="cls-1" d="M8,51a3,3,0,0,1-3,3H5a3,3,0,0,1-3-3V5A3,3,0,0,1,5,2H5A3,3,0,0,1,8,5Z"/></clipPath></defs><title>document,paper</title><polygon class="cls-2" points="61.3 24.54 43.06 11.54 20.77 42.82 45.53 60.46 62.24 37 61.3 24.54"/><path class="cls-3" d="M62.24,37l-1.3-.93-2.6-1.86a3.2,3.2,0,0,1-.75-4.46l1.85-2.61,1.86-2.61"/><rect class="cls-3" x="48.88" y="22.27" width="1.6" height="9.6" transform="translate(-1.19 51.83) rotate(-54.54)"/><rect class="cls-3" x="47.02" y="24.87" width="1.6" height="9.6" transform="translate(-4.09 51.4) rotate(-54.53)"/><rect class="cls-3" x="46.84" y="30.64" width="1.6" height="9.6" transform="matrix(0.58, -0.81, 0.81, 0.58, -8.87, 53.67)"/><rect class="cls-3" x="44.98" y="33.25" width="1.6" height="9.6" transform="translate(-11.77 53.26) rotate(-54.54)"/><rect class="cls-3" x="38.94" y="30.83" width="1.6" height="17.6" transform="translate(-15.6 48.99) rotate(-54.52)"/><rect class="cls-4" x="21.2" y="17.2" width="33.6" height="41.6" transform="translate(-6.37 7.69) rotate(-10.66)"/><rect class="cls-3" x="37.8" y="19.28" width="4.8" height="4.8" transform="translate(1.95 46.64) rotate(-61.46)"/><rect class="cls-3" x="36.79" y="27.84" width="4.8" height="4.8" transform="translate(-6.11 50.2) rotate(-61.43)"/><rect class="cls-3" x="38.02" y="32.17" width="1.6" height="17.6" transform="translate(-15.72 55.47) rotate(-61.44)"/><rect class="cls-3" x="36.49" y="34.98" width="1.6" height="17.6" transform="translate(-18.99 55.6) rotate(-61.44)"/><rect class="cls-5" x="10" y="6" width="36" height="52"/><path class="cls-5" d="M8,51a3,3,0,0,1-3,3H5a3,3,0,0,1-3-3V5A3,3,0,0,1,5,2H5A3,3,0,0,1,8,5Z"/><g class="cls-6"><rect class="cls-7" x="-37" y="15" width="60" height="2" transform="translate(-13.36 -0.26) rotate(-45)"/><rect class="cls-7" x="-37" y="19" width="60" height="2" transform="translate(-16.19 0.91) rotate(-45)"/><rect class="cls-7" x="-37" y="23" width="60" height="2" transform="translate(-19.02 2.08) rotate(-45)"/><rect class="cls-7" x="-37" y="27" width="60" height="2" transform="translate(-21.85 3.25) rotate(-45)"/><rect class="cls-7" x="-37" y="31" width="60" height="2" transform="translate(-24.68 4.42) rotate(-45)"/><rect class="cls-7" x="-37" y="35" width="60" height="2" transform="translate(-27.51 5.59) rotate(-45)"/><rect class="cls-7" x="-37" y="39" width="60" height="2" transform="translate(-30.33 6.77) rotate(-45)"/><rect class="cls-7" x="-37" y="43" width="60" height="2" transform="translate(-33.16 7.94) rotate(-45)"/><rect class="cls-7" x="-37" y="47" width="60" height="2" transform="translate(-35.99 9.11) rotate(-45)"/><rect class="cls-7" x="-37" y="51" width="60" height="2" transform="translate(-38.82 10.28) rotate(-45)"/><rect class="cls-7" x="-37" y="55" width="60" height="2" transform="translate(-41.65 11.45) rotate(-45)"/><rect class="cls-7" x="-37" y="59" width="60" height="2" transform="translate(-44.48 12.62) rotate(-45)"/><rect class="cls-7" x="-37" y="63" width="60" height="2" transform="translate(-47.3 13.8) rotate(-45)"/></g><rect class="cls-3" x="12" y="30" width="32" height="2"/><rect class="cls-3" x="12" y="34" width="24" height="2"/><rect class="cls-8" x="16" y="38" width="28" height="2"/><rect class="cls-8" x="12" y="42" width="32" height="2"/><rect class="cls-8" x="12" y="46" width="32" height="2"/><rect class="cls-8" x="12" y="50" width="24" height="2"/><path class="cls-4" d="M16.18,17.4h1.64a.4.4,0,0,1,.4.34l.27,1.69,1.38-1a.4.4,0,0,1,.52,0l1.16,1.16a.4.4,0,0,1,0,.52l-1,1.38,1.69.27a.4.4,0,0,1,.34.39v1.64a.4.4,0,0,1-.34.4l-1.69.27,1,1.38a.4.4,0,0,1,0,.52l-1.16,1.16a.4.4,0,0,1-.52,0l-1.38-1-.27,1.68a.4.4,0,0,1-.4.34H16.18a.4.4,0,0,1-.4-.34l-.27-1.69-1.38,1a.4.4,0,0,1-.52,0l-1.16-1.16a.4.4,0,0,1,0-.52l1-1.38-1.69-.27a.4.4,0,0,1-.34-.4V22.18a.4.4,0,0,1,.34-.39l1.95-.31-1-1.34a.4.4,0,0,1,0-.52l1.16-1.16a.4.4,0,0,1,.52,0l1.12.81.24-1.49A.4.4,0,0,1,16.18,17.4Zm1.3.8h-1L16.24,20a.4.4,0,0,1-.63.26l-1.37-1-.67.67,1,1.32a.4.4,0,0,1,0,.43,3,3,0,0,0-.14.29.4.4,0,0,1-.31.25l-1.89.3v1l1.89.3a.4.4,0,0,1,.31.25.63.63,0,0,1,0,.48l-1.12,1.55.67.68,1.55-1.12a.4.4,0,0,1,.39,0c.13.05.32.21.34.35l.3,1.89h1l.3-1.89A.39.39,0,0,1,18,25.6a.61.61,0,0,1,.48,0l1.55,1.12.67-.68-1.12-1.55a.4.4,0,0,1,0-.39c.05-.13.21-.32.34-.34l1.89-.3v-1l-1.89-.3A.4.4,0,0,1,19.6,22a.63.63,0,0,1,0-.48l1.12-1.55-.67-.67-1.55,1.12a.4.4,0,0,1-.39,0c-.13-.05-.32-.21-.34-.34ZM17,21a2,2,0,1,1-2,2A2,2,0,0,1,17,21Zm0,3.2A1.2,1.2,0,1,0,15.8,23,1.2,1.2,0,0,0,17,24.2Z"/><circle class="cls-3" cx="43" cy="55" r="1"/><circle class="cls-3" cx="39" cy="55" r="1"/><circle class="cls-3" cx="35" cy="55" r="1"/><circle class="cls-3" cx="31" cy="55" r="1"/><path class="cls-8" d="M48,62H5.88A3.88,3.88,0,0,1,2,58.13v-.25A3.88,3.88,0,0,1,5.88,54H8V52H5.88A5.88,5.88,0,0,0,0,57.88v.25A5.88,5.88,0,0,0,5.88,64H48"/><path class="cls-8" d="M10,54V5A5,5,0,0,0,0,5V58H2V5A3,3,0,0,1,8,5V54"/><path class="cls-8" d="M46,4H10A2,2,0,0,0,8,6V58a2,2,0,0,0,2,2H46a2,2,0,0,0,2-2V6A2,2,0,0,0,46,4Zm0,54H10V6H46Z"/><rect class="cls-8" x="12" y="10" width="10" height="2"/><rect class="cls-3" x="32" y="10" width="10" height="2"/><rect class="cls-8" x="12" y="14" width="10" height="2"/><path class="cls-8" d="M37,26.75,50.12,16.56,63.27,6.36h0a3.08,3.08,0,0,0,0-4c-1-1.25-2.37-2.35-4-.83h0L46.15,11.62,33,21.76l-5.11,8ZM59.12,3.1l2.35,3L36.35,25.61l-5.42,1.77L34,22.57Z"/><path class="cls-5" d="M59.12,3.1l2.35,3L36.35,25.61l-5.42,1.77L34,22.57Z"/><polygon class="cls-3" points="59.77 5.78 59.38 5.28 58.98 4.77 46.49 14.45 34.01 24.13 31.96 26.51 34.79 25.14 47.28 15.46 59.77 5.78"/></svg>