<svg id="fax_copywriting" data-name="fax, copywriting" xmlns="http://www.w3.org/2000/svg" width="64" height="64" viewBox="0 0 64 64"><defs><style>.cls-1{fill:#5592bc;}.cls-2{fill:#fff;}.cls-3{fill:#87cfff;}.cls-4{fill:#d3e8f4;}.cls-5{fill:#cde3fa;}</style></defs><title>fax, copywriting</title><path class="cls-1" d="M56,34H8V24H56ZM10,32H54V26H10Z"/><rect class="cls-2" x="10" y="26" width="44" height="6"/><rect class="cls-1" x="56" y="26" width="4" height="2"/><rect class="cls-1" x="56" y="30" width="4" height="2"/><rect class="cls-1" x="4" y="26" width="4" height="2"/><rect class="cls-1" x="4" y="30" width="4" height="2"/><path class="cls-1" d="M6,34H0V24H6ZM2,32H4V26H2Z"/><path class="cls-1" d="M64,34H58V24h6Zm-4-2h2V26H60Z"/><path class="cls-1" d="M52,34a2,2,0,0,0-2-2H14a2,2,0,0,0-2,2V62a2,2,0,0,0,2,2H50a2,2,0,0,0,2-2ZM50,62H14V34H50Z"/><path class="cls-1" d="M9,26.5a1,1,0,0,1-1-1V20H1c-.55,0-1-.95-1-1.5V7.5a1,1,0,0,1,2,0V18H9c.55,0,1-.05,1,.5v7A1,1,0,0,1,9,26.5Z"/><path class="cls-1" d="M8,9a3,3,0,0,1-3,3H3A3,3,0,0,1,0,9V7A3,3,0,0,1,3,4H5A3,3,0,0,1,8,7ZM6,7A1,1,0,0,0,5,6H3A1,1,0,0,0,2,7V9a1,1,0,0,0,1,1H5A1,1,0,0,0,6,9Z"/><rect class="cls-3" x="2" y="28" width="2" height="4"/><rect class="cls-3" x="60" y="28" width="2" height="4"/><path class="cls-4" d="M32,2V18H48v4.71C48,25.36,50.14,28,52.79,28h.42C55.86,28,58,25.36,58,22.71V2Z"/><rect class="cls-2" x="34" y="4" width="20" height="2"/><rect class="cls-2" x="34" y="8" width="20" height="2"/><rect class="cls-2" x="34" y="12" width="20" height="2"/><rect class="cls-2" x="34" y="16" width="20" height="2"/><rect class="cls-2" x="34" y="20" width="20" height="2"/><rect class="cls-2" x="34" y="24" width="20" height="2"/><path class="cls-3" d="M46.79,10h.42C49.86,10,52,11,52,14.29V25.5c0,1.11.54,2.5,2,2.5H44c-1.11,0-2-1.39-2-2.5V14.29C42,11.65,44.14,10,46.79,10Z"/><path class="cls-5" d="M14,29.5c0,1.11.89,2.5,2,2.5H44c1.11,0,2-1.39,2-2.5v-18c0-.56.09-1.5,2-1.5H16c-1.11,0-2,.4-2,1.5Z"/><rect class="cls-2" x="24" y="14" width="12" height="2"/><rect class="cls-2" x="18" y="20" width="24" height="2"/><rect class="cls-2" x="18" y="26" width="24" height="2"/><circle class="cls-1" cx="32" cy="39" r="2"/><circle class="cls-1" cx="26" cy="39" r="2"/><circle class="cls-1" cx="20" cy="39" r="2"/><circle class="cls-1" cx="38" cy="39" r="2"/><circle class="cls-1" cx="36" cy="45" r="2"/><circle class="cls-1" cx="30" cy="45" r="2"/><circle class="cls-1" cx="24" cy="45" r="2"/><circle class="cls-1" cx="39" cy="51" r="2"/><circle class="cls-1" cx="33" cy="51" r="2"/><circle class="cls-1" cx="27" cy="51" r="2"/><circle class="cls-1" cx="36" cy="57" r="2"/><circle class="cls-1" cx="30" cy="57" r="2"/><circle class="cls-1" cx="42" cy="45" r="2"/><circle class="cls-1" cx="44" cy="39" r="2"/></svg>