<svg id="hand" xmlns="http://www.w3.org/2000/svg" width="64" height="64" viewBox="0 0 64 64"><defs><style>.cls-1{fill:none;stroke:#5592bc;stroke-linecap:round;stroke-miterlimit:10;stroke-width:2px;}.cls-2{fill:#5592bc;}</style></defs><title>hand</title><path class="cls-1" d="M19,40V6a5,5,0,0,1,5-5h0a5,5,0,0,1,5,5V30"/><path class="cls-1" d="M29,30V21a4,4,0,0,1,4-4h0a4,4,0,0,1,4,4V32"/><path class="cls-1" d="M37,23a3.92,3.92,0,0,1,4.09-3.81h0A3.77,3.77,0,0,1,45,23V36"/><path class="cls-1" d="M19,40l-6.34-8.12A4,4,0,0,0,7,31.68H7c-1.58,1.54-1.36,3.9-.3,5.84,2.9,5.28,10.06,17.54,10.94,19.23,1.06,2,3.22,6.26,6.68,6.26h22S53,59.58,53,54V27a3.85,3.85,0,0,0-3.82-4h0A4.16,4.16,0,0,0,45,27"/><circle class="cls-2" cx="29" cy="35" r="1"/><circle class="cls-2" cx="37" cy="37" r="1"/><circle class="cls-2" cx="45" cy="39" r="1"/></svg>