<svg id="keywords" xmlns="http://www.w3.org/2000/svg" width="64" height="64" viewBox="0 0 64 64"><defs><style>.cls-1{fill:#e3e2f0;}.cls-2{fill:#cde3fa;}.cls-3{fill:#5592bc;}.cls-4,.cls-6{fill:none;stroke-miterlimit:10;}.cls-4{stroke:#87cfff;stroke-linecap:round;stroke-width:2px;}.cls-5{fill:#fff;}.cls-6{stroke:#5592bc;stroke-width:1.8px;}.cls-7{fill:#87cfff;}</style></defs><title>keywords</title><rect class="cls-1" x="52" y="58" width="6" height="4"/><path class="cls-2" d="M63,45c-1.15,0-3,.47-3,1.18V43c0-.55-.92-1-1.47-1H58V7c0-.08-.24-.16-.26-.24l-2.12-6a1.08,1.08,0,0,0-2,0l-1.79,6c0,.08.18.16.18.24V42H50.53c-.55,0-.53.42-.53,1V63c0,.55,0,1,.53,1h8c.55,0,1.47-.47,1.47-1V62h4V46A1,1,0,0,0,63,45ZM54,7.1l1-2,1,2V10H54ZM54,12h2V24H54Zm0,14h2V42H54Zm4,34v2H52V44h6Zm4-12.77V51.8h-.3c-1.22,0-1.66-1-1.66-2A2.21,2.21,0,0,1,62,47.21ZM60,60V53.24c0,.34,1.21.55,1.94.55H62V60Z"/><path class="cls-3" d="M46.34,41.2l-2.83-2.83,4.24-4.24L42.1,28.48l-4.24,4.24L22.44,17.3A11,11,0,1,0,16.79,23L49.17,55.34l5.66-5.66L52,46.86l5.66-5.66L52,35.55Zm8.49,0-5.66,5.66L52,49.69l-2.83,2.83-32-32-.65.34a9,9,0,1,1,3.82-3.82L20,17.7,37.86,35.55l4.24-4.24,2.83,2.83-4.24,4.24L46.34,44,52,38.38Z"/><path class="cls-4" d="M2.16,61.66c2,0,2,.64,4,.64s2-.64,4-.64,2,.64,4,.64,2-.64,4-.64"/><path class="cls-5" d="M52,38.38l2.83,2.83-5.66,5.66L52,49.69l-2.83,2.83-32-32-.65.34a9,9,0,1,1,3.82-3.82L20,17.7,37.86,35.55l4.24-4.24,2.83,2.83-4.24,4.24L46.34,44Z"/><circle class="cls-6" cx="12.5" cy="12.5" r="4.5"/><path class="cls-3" d="M20.49,52.78,34.22,30.7,48,8.62h0a4.65,4.65,0,0,0-2.12-5.7A4.77,4.77,0,0,0,39.47,4h0L25.73,25.74,12,47.66,8.85,62.11ZM40.1,6.1l5.1,3.17L19,51.43,12,57l1.89-8.72Z"/><path class="cls-5" d="M40.1,6.1l5.1,3.17L19,51.43,12,57l1.89-8.72Z"/><polygon class="cls-7" points="42.62 9.63 41.77 9.1 40.92 8.57 27.88 29.53 14.84 50.49 13.14 55.09 16.54 51.55 29.58 30.59 42.62 9.63"/></svg>