<svg id="like_hand" data-name="like,hand" xmlns="http://www.w3.org/2000/svg" width="64" height="64" viewBox="0 0 64 64"><defs><style>.cls-1{fill:#cde3fa;}.cls-2{fill:#5592bc;}.cls-3{fill:#87cfff;}</style></defs><title>like</title><path class="cls-1" d="M37,19a1,1,0,0,1-.46-.11A1,1,0,0,1,36,18V1a1,1,0,0,1,1-1H53a1,1,0,0,1,1,1V13a1,1,0,0,1-1,1H44.32l-6.74,4.81A1,1,0,0,1,37,19ZM38,2V16.06l5.42-3.87A1,1,0,0,1,44,12h8V2Z"/><path class="cls-1" d="M63,27a1,1,0,0,1-.58-.19L55.68,22H45a1,1,0,0,1-1-1V16a1,1,0,0,1,2,0v4H56a1,1,0,0,1,.58.19L62,24.06V10H56a1,1,0,0,1,0-2h7a1,1,0,0,1,1,1V26a1,1,0,0,1-1,1Z"/><rect class="cls-1" x="50" y="16" width="10" height="2"/><rect class="cls-1" x="40" y="4" width="4" height="2"/><rect class="cls-1" x="40" y="8" width="10" height="2"/><path class="cls-1" d="M57,30H53a5,5,0,0,1,0,10h4a5,5,0,0,0,0-10Z"/><path class="cls-1" d="M57,38H53a5,5,0,0,1,0,10h4a5,5,0,0,0,0-10Z"/><path class="cls-1" d="M55,46H51a5,5,0,0,1,0,10h4a5,5,0,0,0,0-10Z"/><path class="cls-1" d="M51,54H47a5,5,0,0,1,0,10h4a5,5,0,0,0,0-10Z"/><path class="cls-2" d="M59,40H58a1,1,0,0,1,0-2h1a3,3,0,0,0,0-6H26a1,1,0,0,1,0-2H59a5,5,0,0,1,0,10Z"/><path class="cls-2" d="M11,64H1a1,1,0,0,1-1-1V29a1,1,0,0,1,1-1H11a1,1,0,0,1,1,1V63A1,1,0,0,1,11,64ZM2,62h8V30H2Z"/><path class="cls-2" d="M59,48H58a1,1,0,0,1,0-2h1a3,3,0,0,0,0-6H44a1,1,0,0,1,0-2H59a5,5,0,0,1,0,10Z"/><path class="cls-2" d="M57,56H52a1,1,0,0,1,0-2h5a3,3,0,0,0,0-6H44a1,1,0,0,1,0-2H57a5,5,0,0,1,0,10Z"/><path class="cls-2" d="M53,64,21.72,64l-11-3.25a1,1,0,1,1,.57-1.92L22.14,62H53a3,3,0,0,0,0-6H44a1,1,0,0,1,0-2h9a5,5,0,0,1,0,10Z"/><path class="cls-2" d="M26,32a1,1,0,0,1-.88-1.47c0-.08,4.3-8.09,4.9-10.9.85-4-4.33-9.14-6-10.53l-2,13.24a1,1,0,0,1-.15.28l-7,9A1,1,0,0,1,14,32H12a1,1,0,0,1,0-2h1.51l6.6-8.49L22.56,7.16a1,1,0,0,1,.61-.61,1,1,0,0,1,.86.1c.3.19,9.38,6.71,7.95,13.39-.66,3.09-4.91,11.09-5.1,11.43A1,1,0,0,1,26,32Z"/><circle class="cls-3" cx="37" cy="39" r="1"/><circle class="cls-3" cx="37" cy="47" r="1"/><circle class="cls-3" cx="37" cy="55" r="1"/><rect class="cls-1" x="4" y="30" width="6" height="32"/><path class="cls-3" d="M7.4,57.92A1,1,0,1,1,8,57a1,1,0,0,1-.6.92"/></svg>