<svg id="money" xmlns="http://www.w3.org/2000/svg" width="64" height="64" viewBox="0 0 64 64"><defs><style>.cls-1{fill:none;stroke-linecap:round;stroke-linejoin:round;}.cls-1,.cls-4,.cls-5,.cls-6{stroke:#5592bc;}.cls-1,.cls-4,.cls-5{stroke-width:2px;}.cls-2{fill:#d0e7fc;}.cls-3{fill:#5592bc;}.cls-4,.cls-6{fill:#ef9884;}.cls-4,.cls-5,.cls-6{stroke-miterlimit:10;}.cls-5{fill:#87cfff;}.cls-6{stroke-width:1.33px;}</style></defs><title>money</title><path class="cls-1" d="M1,49.42c2-1.46,7.17.4,9,.88,5.45,1.44,22.58,1.17,22.58,1.17,12.67.33,12.54-5.32,12.54-5.32,0-3.84-4.58-4.79-7.54-5.28-4.65-.77-9.74,1-14.27-.8a27.48,27.48,0,0,1-6.24-3.6C8.31,29.47,1,31.4,1,31.4Z"/><path class="cls-1" d="M45.08,45.77c0-1.38,2.48-4.36,2.48-4.36h0c.72-.89,1.36-1.84,2.07-2.74a3.43,3.43,0,0,0,.46-1.3q.19-.72.41-1.43a20.94,20.94,0,0,1,1.1-2.81,13.31,13.31,0,0,1,.8-1.44c1.23-1.92,2.93-2.45,5.09-2.59.73,0,1.51-.07,2,.6a5.76,5.76,0,0,1,.31,3.59c-1.08,5.17-4.08,9.54-6.61,14.09-1.73,3.1-3.94,6.74-7.39,8.11-4.61,1.83-9.46,3.16-13.92,5.39a13.85,13.85,0,0,1-5.22,1.54,18.29,18.29,0,0,1-5.76-.71,79.61,79.61,0,0,1-10.53-3.77c-1.54-.64-3.19-1.37-4.72-2S3,54.28,1,53.77V49"/><rect class="cls-2" x="8" width="46" height="30"/><path class="cls-3" d="M52,28H10V2H52ZM12,26H50V4H12Z"/><path class="cls-3" d="M42.25,7.5h-22a4,4,0,0,1-4,4v6a4,4,0,0,1,4,4h22a4,4,0,0,1,4-4v-6A4,4,0,0,1,42.25,7.5Zm2,8.34a6,6,0,0,0-3.66,3.66H21.91a6,6,0,0,0-3.66-3.66V13.16A6,6,0,0,0,21.91,9.5H40.59a6,6,0,0,0,3.66,3.66Z"/><polygon class="cls-3" points="48 10 46 10 46 8 44 8 44 6 48 6 48 10"/><polygon class="cls-3" points="14 10 16 10 16 8 18 8 18 6 14 6 14 10"/><polygon class="cls-3" points="48 24 44 24 44 22 46 22 46 20 48 20 48 24"/><polygon class="cls-3" points="14 24 18 24 18 22 16 22 16 20 14 20 14 24"/><circle class="cls-4" cx="9.25" cy="27.5" r="3"/><circle class="cls-5" cx="59.25" cy="5.5" r="3"/><circle class="cls-5" cx="59.25" cy="9.5" r="3"/><circle class="cls-5" cx="59.25" cy="13.5" r="3"/><circle class="cls-5" cx="59.25" cy="17.5" r="3"/><circle class="cls-5" cx="59.25" cy="21.5" r="3"/><circle class="cls-5" cx="59.25" cy="25.5" r="3"/><circle class="cls-4" cx="59.25" cy="59.5" r="3"/><circle class="cls-6" cx="52.25" cy="56.5" r="2"/></svg>