<svg id="protect" xmlns="http://www.w3.org/2000/svg" width="64" height="64" viewBox="0 0 64 64"><defs><style>.cls-1{fill:#cde3fa;}.cls-2{fill:#d0e7fc;}.cls-3{fill:#5592bc;}.cls-4{fill:#87cfff;}.cls-5,.cls-6{fill:none;stroke:#5592bc;stroke-width:2px;}.cls-5{stroke-linecap:round;stroke-linejoin:round;}.cls-6{stroke-miterlimit:10;}</style></defs><title>protect</title><polygon class="cls-1" points="52 32 16 32 14 30 53 30 52 32"/><polygon class="cls-1" points="53 28 13 28 10 16 57 16 53 28"/><path class="cls-1" d="M42,61a3,3,0,1,0-3,3A3,3,0,0,0,42,61Zm-2,0a1,1,0,1,1-1-1A1,1,0,0,1,40,61Z"/><path class="cls-1" d="M41.46,61.38a1,1,0,0,1-.62-1.79L46,55.52V50a1,1,0,0,1,2,0v6a1,1,0,0,1-.38.79l-5.54,4.38A1,1,0,0,1,41.46,61.38Z"/><path class="cls-1" d="M5,0A3,3,0,1,0,8,3,3,3,0,0,0,5,0ZM5,4A1,1,0,1,1,6,3,1,1,0,0,1,5,4Z"/><path class="cls-1" d="M12,16a1,1,0,0,1-1-1V9.48L5.84,5.41A1,1,0,0,1,7.08,3.84l5.54,4.38A1,1,0,0,1,13,9v6A1,1,0,0,1,12,16Z"/><circle class="cls-2" cx="18" cy="7" r="1"/><rect class="cls-3" x="17" y="8" width="2" height="6"/><rect class="cls-3" x="53" y="50" width="2" height="6"/><path class="cls-3" d="M57,3a3,3,0,1,0,3-3A3,3,0,0,0,57,3Zm2,0a1,1,0,1,1,1,1A1,1,0,0,1,59,3Z"/><circle class="cls-4" cx="60" cy="3" r="1"/><polyline class="cls-5" points="53 15 53 9 58.54 4.63"/><path class="cls-3" d="M41,0a3,3,0,1,0,3,3A3,3,0,0,0,41,0Zm0,4a1,1,0,1,1,1-1A1,1,0,0,1,41,4Z"/><circle class="cls-4" cx="41" cy="3" r="1"/><polyline class="cls-5" points="48 15 48 9 42.46 4.63"/><path class="cls-3" d="M8,61a3,3,0,1,0-3,3A3,3,0,0,0,8,61ZM6,61a1,1,0,1,1-1-1A1,1,0,0,1,6,61Z"/><circle class="cls-4" cx="5" cy="61" r="1"/><polyline class="cls-5" points="12 50 12 55 6.46 59.38"/><path class="cls-3" d="M27,64a3,3,0,1,0-3-3A3,3,0,0,0,27,64Zm0-4a1,1,0,1,1-1,1A1,1,0,0,1,27,60Z"/><circle class="cls-4" cx="27" cy="61" r="1"/><path class="cls-3" d="M54,61a3,3,0,1,0-3-3A3,3,0,0,0,54,61Zm0-4a1,1,0,1,1-1,1A1,1,0,0,1,54,57Z"/><path class="cls-3" d="M18,10a3,3,0,1,0-3-3A3,3,0,0,0,18,10Zm0-4a1,1,0,1,1-1,1A1,1,0,0,1,18,6Z"/><circle class="cls-4" cx="54" cy="58" r="1"/><polyline class="cls-5" points="20 49.88 20 55 25.54 59.38"/><rect class="cls-3" x="37" y="42" width="2" height="8"/><rect class="cls-3" x="41" y="42" width="2" height="8"/><rect class="cls-3" x="33" y="42" width="2" height="8"/><rect class="cls-3" x="29" y="42" width="2" height="8"/><rect class="cls-3" x="25" y="42" width="2" height="8"/><rect class="cls-3" x="21" y="42" width="2" height="8"/><rect class="cls-6" x="8" y="15" width="51" height="35" rx="1.96" ry="1.96"/><polygon class="cls-5" points="53.12 29 13.88 29 9.72 15 57.28 15 53.12 29"/><path class="cls-6" d="M24,15V12a2,2,0,0,1,2-2H40a2,2,0,0,1,2,2v3Z"/><path class="cls-3" d="M29,24V34h8V24Zm6,8H31V26h4Z"/><rect class="cls-4" x="31" y="26" width="4" height="6"/><rect class="cls-3" x="45" y="15" width="2" height="36"/><rect class="cls-3" x="17" y="15" width="2" height="36"/></svg>