<svg id="shoping" xmlns="http://www.w3.org/2000/svg" width="64" height="64" viewBox="0 0 64 64"><defs><style>.cls-1{fill:#d0e7fc;}.cls-2{fill:#fff;}.cls-3{fill:#5592bc;}.cls-4{fill:#ef9884;}.cls-5{fill:none;stroke:#ef9884;stroke-miterlimit:10;}</style></defs><title>shoping</title><circle class="cls-1" cx="52.52" cy="24.41" r="1" transform="translate(7.06 60.3) rotate(-63.21)"/><path class="cls-1" d="M54.92,24.37a1,1,0,0,1-.5-.58,2,2,0,0,0-2.53-1.27,1,1,0,1,1-.62-1.9,4.09,4.09,0,0,1,5,2.55,1,1,0,0,1-1.4,1.21Z"/><path class="cls-1" d="M58.72,23.11a1,1,0,0,1-.5-.58,6.15,6.15,0,0,0-7.58-3.82,1,1,0,0,1-.62-1.9,8.19,8.19,0,0,1,10.1,5.09,1,1,0,0,1-1.4,1.21Z"/><path class="cls-1" d="M61.52,20.7a1,1,0,0,1-.5-.58A8,8,0,0,0,50.92,15a1,1,0,0,1-.62-1.9A10,10,0,0,1,62.92,19.5a1,1,0,0,1-1.4,1.21Z"/><polygon class="cls-1" points="19.95 51.14 10.49 54.7 5.36 48.09 19.44 42.78 19.95 51.14"/><path class="cls-1" d="M7.95,47.91,5.2,45.29l0,0A1,1,0,0,0,5,45.15l-.16-.08-.19,0a.82.82,0,0,0-.2,0H4.36l-3.46.5a1,1,0,0,0,.29,2l3-.43,2.4,2.28a1,1,0,0,0,1,.21A1,1,0,0,0,8,49.32,1,1,0,0,0,7.95,47.91Z"/><circle class="cls-1" cx="18.73" cy="53.73" r="1" transform="translate(-17.75 10.06) rotate(-20.65)"/><circle class="cls-1" cx="13.12" cy="55.85" r="1" transform="translate(-18.9 8.24) rotate(-20.7)"/><path class="cls-1" d="M51.27,54.31l-9.9-9.9L54.1,31.69l9.9,9.9Zm-7.07-9.9,7.07,7.07,9.9-9.9L54.1,34.51Z"/><rect class="cls-1" x="51.69" y="40" width="2" height="6" transform="translate(-14.97 49.85) rotate(-45)"/><rect class="cls-1" x="54.52" y="37.17" width="2" height="6" transform="translate(-12.15 51.02) rotate(-45)"/><rect class="cls-1" x="48.86" y="42.83" width="2" height="6" transform="translate(-17.8 48.68) rotate(-45)"/><path class="cls-1" d="M10.43,24.58,7.25,27A3,3,0,0,1,3,26.45L.62,23.27a3,3,0,0,1,.56-4.21l3.18-2.43a3,3,0,0,1,4.21.56L11,20.37A3,3,0,0,1,10.43,24.58Zm-8-3.92a1,1,0,0,0-.19,1.4l2.43,3.18a1,1,0,0,0,1.4.19L9.21,23a1,1,0,0,0,.19-1.4L7,18.41a1,1,0,0,0-1.4-.19Z"/><rect class="cls-2" x="3.87" y="23.78" width="12" height="10" transform="translate(-15.46 11.92) rotate(-37.41)"/><path class="cls-1" d="M19.26,27.9,8.14,36.4.85,26.87,12,18.36ZM8.51,33.6l7.94-6.08L11.6,21.17,3.65,27.24Z"/><rect class="cls-2" x="16" y="2" width="32" height="62" rx="2" ry="2"/><path class="cls-3" d="M47,64H19a3,3,0,0,1-3-3V3a3,3,0,0,1,3-3H47a3,3,0,0,1,3,3V61A3,3,0,0,1,47,64ZM19,2a1,1,0,0,0-1,1V61a1,1,0,0,0,1,1H47a1,1,0,0,0,1-1V3a1,1,0,0,0-1-1Z"/><rect class="cls-2" x="20" y="10" width="24" height="46" rx="2" ry="2"/><path class="cls-3" d="M43,56H23a3,3,0,0,1-3-3V11a3,3,0,0,1,3-3H43a3,3,0,0,1,3,3V53A3,3,0,0,1,43,56ZM23,10a1,1,0,0,0-1,1V53a1,1,0,0,0,1,1H43a1,1,0,0,0,1-1V11a1,1,0,0,0-1-1Z"/><polygon class="cls-4" points="40.05 40 29.95 40 27.47 32 42.53 32 40.05 40"/><path class="cls-4" d="M30,32.74l-1.65-3.42,0,0a.92.92,0,0,0-.12-.16.63.63,0,0,0-.29-.23,1,1,0,0,0-.18-.08l-.06,0L24.22,28a1,1,0,1,0-.43,2l2.94.65,1.44,3a1,1,0,0,0,.9.57,1,1,0,0,0,.43-.1A1,1,0,0,0,30,32.74Z"/><circle class="cls-5" cx="38" cy="42" r="1"/><circle class="cls-5" cx="32" cy="42" r="1"/><path class="cls-3" d="M38,59a1,1,0,0,1-1,1H29a1,1,0,0,1-1-1h0a1,1,0,0,1,1-1h8a1,1,0,0,1,1,1Z"/><path class="cls-3" d="M38,5a1,1,0,0,1-1,1H29a1,1,0,0,1-1-1h0a1,1,0,0,1,1-1h8a1,1,0,0,1,1,1Z"/><rect class="cls-4" x="24" y="12" width="16" height="2"/><rect class="cls-4" x="24" y="16" width="12" height="2"/><rect class="cls-4" x="24" y="20" width="10" height="2"/><path class="cls-4" d="M40,50a2,2,0,0,1-2,2H28a2,2,0,0,1-2-2h0a2,2,0,0,1,2-2H38a2,2,0,0,1,2,2Z"/></svg>