<svg id="tags" xmlns="http://www.w3.org/2000/svg" width="64" height="64" viewBox="0 0 64 64"><defs><style>.cls-1{fill:#cde3fa;}.cls-2{fill:#d0e7fc;}.cls-3{fill:#5592bc;}.cls-4{fill:#fff;}</style></defs><title>tags</title><path class="cls-1" d="M7.62,49.59A1,1,0,0,0,8.1,51h0a1,1,0,0,0,1.34-.55l9.43-21.08A1,1,0,0,0,18.39,28h0A1,1,0,0,0,17,28.5Z"/><path class="cls-1" d="M11.57,51.69A1,1,0,0,0,12.1,53h0a1,1,0,0,0,1.29-.44l8.37-18.7a1,1,0,0,0-.53-1.26h0a1,1,0,0,0-1.29.44Z"/><path class="cls-1" d="M15.69,53.42A1.13,1.13,0,0,0,16.1,55h0a1.14,1.14,0,0,0,1.42-.72L28.6,29.45a1.14,1.14,0,0,0-.41-1.54h0a1.14,1.14,0,0,0-1.42.72Z"/><path class="cls-1" d="M19.6,55.63A1,1,0,0,0,20.1,57h0a1,1,0,0,0,1.32-.51l9-20.08A1,1,0,0,0,29.9,35h0a1,1,0,0,0-1.32.5Z"/><path class="cls-1" d="M23.85,57.06a1,1,0,0,0,.55,1.21h0a1,1,0,0,0,1.27-.4L33.6,40.16A1,1,0,0,0,33,38.95h0a1,1,0,0,0-1.27.39Z"/><path class="cls-1" d="M27.56,57.72A1,1,0,0,0,28.1,59h0a1,1,0,0,0,1.28-.42l8.11-18.12a1,1,0,0,0-.54-1.23h0a1,1,0,0,0-1.28.42Z"/><path class="cls-1" d="M31.47,59.91c-.16.35.13.82.63,1h0c.5.22,1,.12,1.2-.23l6.25-14c.16-.35-.13-.82-.63-1h0c-.5-.23-1-.12-1.2.23Z"/><path class="cls-2" d="M59.86,38c0,.33.05.66.05,1a11,11,0,0,1-22,0c0-.34,0-.67.05-1H36c0,.33-.05.66-.05,1a13,13,0,0,0,26,0c0-.34,0-.67-.05-1Z"/><path class="cls-3" d="M48.91,24a13,13,0,1,0,13,13A13,13,0,0,0,48.91,24Zm0,24a11,11,0,1,1,11-11A11,11,0,0,1,48.91,48Z"/><path class="cls-4" d="M48.91,48a11,11,0,1,1,11-11A11,11,0,0,1,48.91,48Z"/><rect class="cls-3" x="56" y="36" width="4" height="2"/><rect class="cls-3" x="38" y="36" width="4" height="2"/><rect class="cls-3" x="54.98" y="28.93" width="2" height="2" transform="translate(-4.76 48.35) rotate(-45)"/><rect class="cls-3" x="40.84" y="43.07" width="2" height="2" transform="translate(-18.91 42.49) rotate(-45)"/><rect class="cls-3" x="54.98" y="43.07" width="2" height="2" transform="translate(-14.77 52.49) rotate(-45)"/><rect class="cls-3" x="40.93" y="28.89" width="2" height="2.25" transform="translate(-8.94 38.44) rotate(-45)"/><rect class="cls-3" x="48" y="36" width="6" height="2"/><rect class="cls-3" x="48" y="32" width="2" height="6"/><path class="cls-3" d="M40,6.72a5,5,0,1,0,2.76,6.51A5,5,0,0,0,40,6.72Zm-3,7.42a3,3,0,1,1,3.91-1.66A3,3,0,0,1,37,14.13Z"/><path class="cls-3" d="M12.83,28.44l-1.47,3.62L9.14,37.56,6.92,43.05,4.69,48.55l3.94,1.6,3.94,1.59,3.94,1.6,3.94,1.59,3.94,1.59,3.94,1.6,3.94,1.59,3.94,1.6,2.22-5.49,2.28-5.63,1.85.75L39.69,58,37.31,63.9l-4.4-1.78-4.4-1.78-4.4-1.78-4.4-1.78L15.3,55l-4.4-1.78-4.4-1.78-4.4-1.78,2.37-5.86,2.37-5.86L9.2,32.06l1.88-4.45ZM52,22.37l2-5-1.53-1.89-1.53-1.89-1.53-1.89L47.88,9.78,46.36,7.89,44.83,6,43.3,4.11,41.78,2.22l-2.41.3L37,2.81l-2.41.3-2.41.3-2.41.3L27.3,4l-2.41.29-2.41.3-2,2.84-1.83-.82,2.37-3.86,2.7-.33,2.7-.33,2.7-.33,2.7-.33,2.7-.33,2.7-.33,2.7-.33L42.63.1l1.71,2.11L46,4.32l1.71,2.11,1.71,2.12,1.7,2.11,1.71,2.11,1.71,2.12L56.29,17l-2.47,6.11"/><rect class="cls-3" x="48" y="26" width="2" height="4"/><rect class="cls-3" x="48" y="44" width="2" height="4"/><path class="cls-1" d="M12,10a8,8,0,1,0,8,8H12Z"/><path class="cls-1" d="M14,8h0v8h8A8,8,0,0,0,14,8Z"/></svg>